<?xml version="1.0" standalone="no"?><!DOCTYPE svg PUBLIC "-//W3C//DTD SVG 1.1//EN" "http://www.w3.org/Graphics/SVG/1.1/DTD/svg11.dtd"><svg t="1732603255000" class="icon" viewBox="0 0 1024 1024" version="1.1" xmlns="http://www.w3.org/2000/svg" p-id="5661" xmlns:xlink="http://www.w3.org/1999/xlink" width="200" height="200"><path d="M983.8 329.9H678.6v365.3H983.8c22.2 0 40.3-81.8 40.3-182.7s-18.1-182.6-40.3-182.6z" fill="#D04221" p-id="5662"></path><path d="M979.1 683.1h-62.7c-4.8 0-8.6-4.1-8.1-8.9l4.7-49.9c7-74.1 7-148.6 0-222.7l-4.7-50.4c-0.4-4.8 3.3-8.9 8.1-8.9h62.7c4.2 0 7.7 3.2 8.1 7.4l4.8 51.5c7 74.1 7 148.6 0 222.7l-4.9 52c-0.2 3.9-3.8 7.2-8 7.2z" fill="#5CAAEA" p-id="5663"></path><path d="M879.4 630.4h-73.5c-2.5 0-4.5-2-4.5-4.5V399.2c0-2.5 2-4.5 4.5-4.5h73.5c2.5 0 4.5 2 4.5 4.5v226.7c0 2.5-2 4.5-4.5 4.5zM745 710.2H604.4c-13.8 0-25-11.3-25-25V340c0-13.8 11.3-25 25-25h140.6c13.8 0 25 11.3 25 25v345.2c0 13.8-11.3 25-25 25z" fill="#FE7D21" p-id="5664"></path><path d="M0 315.1h679.2V710H0z" fill="#006FC2" p-id="5665"></path><path d="M915.8 436.4l76-38.6 1.7 19-76.5 37z" fill="#B6DAF9" p-id="5666"></path><path d="M979.1 684.7h-62.7c-2.8 0-5.4-1.2-7.3-3.2-1.9-2-2.8-4.8-2.5-7.6l4.7-49.9c6.9-73.8 6.9-148.6 0-222.4l-4.7-50.4c-0.3-2.8 0.7-5.5 2.5-7.6 1.9-2 4.5-3.2 7.3-3.2h62.7c5.1 0 9.3 3.8 9.8 8.9l4.8 51.5c7 74 7 149 0 223l-4.9 52c-0.3 5.1-4.6 8.9-9.7 8.9z m-62.7-340.9c-1.9 0-3.6 0.8-4.8 2.1-1.2 1.4-1.8 3.1-1.7 5l4.7 50.4c6.9 74 6.9 149 0 223l-4.7 49.9c-0.2 1.8 0.4 3.6 1.7 5 1.2 1.4 2.9 2.1 4.8 2.1h62.7c3.4 0 6.1-2.5 6.5-5.9l4.9-52c6.9-73.8 6.9-148.6 0-222.4l-4.8-51.5c-0.3-3.4-3.1-5.9-6.5-5.9h-62.8z" fill="#494949" p-id="5667"></path><path d="M130.6 343.4h7.9v338.4h-7.9zM265.1 343.4h7.9v338.4h-7.9zM399.6 343.4h7.9v338.4h-7.9zM534.1 343.4h7.9v338.4h-7.9z" fill="#5CAAEA" p-id="5668"></path><path d="M948 329.9s0.6-5.7-0.7-6.2c-1.3-0.5-8.1 1-9.4-0.5-1.3-1.5-8.2-37.9-6.1-43.6 1-2.9 17.1-4.7 19.7-2.1 2.4 2.5 7.3 42.3 6.7 44s-4.5 0.5-5.9 1.7c-0.9 0.8-0.8 6.6-0.8 6.6h-3.5zM948 695.2s0.6 5.7-0.7 6.2c-1.3 0.5-8.1-1-9.4 0.5-1.3 1.5-8.2 37.9-6.1 43.6 1 2.9 17.1 4.7 19.7 2.1 2.4-2.5 7.3-42.3 6.7-44s-4.5-0.5-5.9-1.7c-0.9-0.8-0.8-6.6-0.8-6.6h-3.5z" fill="#D04221" p-id="5669"></path></svg>