<?xml version="1.0" standalone="no"?><!DOCTYPE svg PUBLIC "-//W3C//DTD SVG 1.1//EN" "http://www.w3.org/Graphics/SVG/1.1/DTD/svg11.dtd"><svg t="1732599596158" class="icon" viewBox="0 0 1024 1024" version="1.1" xmlns="http://www.w3.org/2000/svg" p-id="7787" xmlns:xlink="http://www.w3.org/1999/xlink" width="200" height="200"><path d="M419.114667 955.818667a44.8 44.8 0 0 0 44.672-49.194667l-10.368-103.168h-30.506667l-43.861333 87.594667a44.8 44.8 0 0 0 40.106666 64.768z m198.101333 0a44.8 44.8 0 0 1-44.629333-49.194667l10.325333-103.168h30.506667l43.861333 87.594667a44.8 44.8 0 0 1-40.064 64.768z" fill="#E64A19" p-id="7788"></path><path d="M543.317333 955.818667h-50.304a45.738667 45.738667 0 0 1-45.696-50.730667l9.898667-86.4h121.898667l9.6 86.4a45.696 45.696 0 0 1-45.397334 50.773333z" fill="#E64A19" p-id="7789"></path><path d="M350.549333 544.384h137.130667v30.506667H350.549333zM350.549333 605.354667h137.130667v30.464H350.549333zM350.549333 666.325333h137.130667v30.464H350.549333zM365.781333 727.253333h137.130667v30.464H365.781333zM685.781333 574.890667h-137.130666v-30.506667h137.130666zM685.781333 635.818667h-137.130666v-30.464h137.130666zM685.781333 696.789333h-137.130666v-30.464h137.130666zM670.549333 757.717333h-137.130666v-30.464h137.130666z" fill="#8E230A" p-id="7790"></path><path d="M469.845333 535.552l-200.832-61.696V317.653333h30.506667v133.632l179.328 55.168-9.002667 29.098667z" fill="#330B04" p-id="7791"></path><path d="M390.784 285.354667c0 16.981333-5.973333 33.408-16.768 46.506666l-5.034667 5.589334a116.736 116.736 0 0 1-83.968 35.541333 117.034667 117.034667 0 0 1 0-233.941333v81.834666c10.325333-5.333333 21.76-8.106667 33.365334-8.064 39.893333 0.426667 72.106667 32.682667 72.405333 72.533334z" fill="#BF360C" p-id="7792"></path><path d="M284.245333 139.690667v233.898666a117.034667 117.034667 0 0 1 0-233.898666z" fill="#BF360C" p-id="7793"></path><path d="M390.784 285.354667c0 16.981333-5.973333 33.408-16.768 46.506666l-5.034667 5.589334a74.24 74.24 0 0 1-51.328 20.906666 72.96 72.96 0 0 1 0-146.133333c40.362667 0 73.130667 32.725333 73.130667 73.130667z" fill="#F4511E" p-id="7794"></path><path d="M566.485333 535.552l-9.002666-29.098667 179.370666-55.168V317.653333h30.464v156.202667z" fill="#330B04" p-id="7795"></path><path d="M645.546667 285.354667c0 16.981333 5.973333 33.408 16.768 46.506666l5.034666 5.589334a116.736 116.736 0 0 0 83.968 35.541333h0.768a117.034667 117.034667 0 0 0 0-233.941333v81.834666a73.130667 73.130667 0 0 0-106.496 64.426667v0.042667z" fill="#BF360C" p-id="7796"></path><path d="M752.085333 139.690667v233.898666a117.034667 117.034667 0 0 0 0-233.898666z" fill="#BF360C" p-id="7797"></path><path d="M645.546667 285.354667c0 16.981333 5.973333 33.408 16.768 46.506666l5.034666 5.589334a74.24 74.24 0 0 0 51.370667 20.906666c11.605333 0 23.04-2.730667 33.365333-8.106666a72.96 72.96 0 0 0-33.365333-138.026667c-40.405333 0-73.173333 32.725333-73.173333 73.130667z" fill="#F4511E" p-id="7798"></path><path d="M269.653333 483.413333a7.765333 7.765333 0 0 1-7.68-7.594666 412.202667 412.202667 0 0 1 17.408-119.168 419.669333 419.669333 0 0 1 203.605334-248.661334 7.296 7.296 0 0 1 8.661333 1.066667 417.536 417.536 0 0 1 137.130667 308.394667 7.637333 7.637333 0 0 1-7.594667 7.637333 7.765333 7.765333 0 0 1-7.637333-7.637333 402.432 402.432 0 0 0-128.128-293.461334 400.469333 400.469333 0 0 0-208.170667 352 7.637333 7.637333 0 0 1-7.594667 7.466667z" fill="#89220A" p-id="7799"></path><path d="M766.72 483.413333a7.637333 7.637333 0 0 1-7.637333-7.594666 400.469333 400.469333 0 0 0-208.170667-351.829334 402.432 402.432 0 0 0-127.36 293.461334 7.765333 7.765333 0 0 1-7.637333 7.637333 7.637333 7.637333 0 0 1-7.594667-7.637333 417.536 417.536 0 0 1 137.130667-308.394667 7.296 7.296 0 0 1 8.661333-1.066667 419.669333 419.669333 0 0 1 202.837333 248.832c11.562667 38.656 17.408 78.805333 17.365334 119.168a7.765333 7.765333 0 0 1-7.594667 7.466667z" fill="#89220A" p-id="7800"></path><path d="M415.786667 666.325333h204.8v57.258667c0 16.853333-13.653333 30.506667-30.506667 30.506667H446.293333a30.464 30.464 0 0 1-30.464-30.506667v-57.258667z" fill="#F4511E" p-id="7801"></path><path d="M401.28 607.488h233.770667v57.301333a30.464 30.464 0 0 1-30.464 30.464h-172.8a30.464 30.464 0 0 1-30.506667-30.464v-57.301333z" fill="#E64A19" p-id="7802"></path><path d="M401.28 548.992h233.770667v57.258667c0 16.853333-13.653333 30.506667-30.464 30.506666h-172.8a30.464 30.464 0 0 1-30.506667-30.506666v-57.258667z" fill="#F4511E" p-id="7803"></path><path d="M640.085333 428.117333v9.6c0 10.24-0.597333 20.394667-1.706666 30.506667a418.901333 418.901333 0 0 1-23.125334 103.893333H421.973333a418.901333 418.901333 0 0 1-23.168-103.893333 289.536 289.536 0 0 1-1.706666-30.506667v-30.464c0-10.24 1.28-20.394667 2.645333-30.464s2.730667-20.437333 4.864-30.464c1.706667-10.282667 4.010667-20.48 6.826667-30.506666a416.597333 416.597333 0 0 1 53.674666-119.466667c5.418667-8.021333 14.506667-12.8 24.234667-12.8h56.362667c9.685333 0 18.773333 4.778667 24.234666 12.8a416.597333 416.597333 0 0 1 54.869334 119.466667c2.901333 10.026667 5.333333 20.224 7.125333 30.506666a418.005333 418.005333 0 0 1 7.466667 60.970667c0.64 6.826667 0.64 13.824 0.64 20.821333z" fill="#F4511E" p-id="7804"></path><path d="M415.786667 271.36a29.269333 29.269333 0 1 0 58.496 0 29.269333 29.269333 0 0 0-58.496 0z" fill="#8E230A" p-id="7805"></path><path d="M430.378667 271.36a14.634667 14.634667 0 1 0 29.269333 0 14.634667 14.634667 0 0 0-29.269333 0z" fill="#212121" p-id="7806"></path><path d="M562.048 271.36a29.269333 29.269333 0 1 0 58.538667 0 29.269333 29.269333 0 0 0-58.538667 0z" fill="#8E230A" p-id="7807"></path><path d="M576.682667 271.36a14.634667 14.634667 0 1 0 29.269333 0 14.634667 14.634667 0 0 0-29.269333 0z" fill="#212121" p-id="7808"></path><path d="M585.813333 592.853333H450.56c-26.88 0-48.810667-21.546667-49.237333-48.469333-0.042667-22.570667 15.274667-42.282667 37.205333-47.829333l67.797333-16.896c7.808-2.005333 15.957333-2.005333 23.765334 0l67.84 16.896c21.888 5.546667 37.205333 25.258667 37.12 47.829333a49.237333 49.237333 0 0 1-49.194667 48.469333z" fill="#D84315" p-id="7809"></path><path d="M563.882667 870.656h-91.434667a53.76 53.76 0 0 1-50.432-48.938667l-5.802667-38.826666h204.373334l-5.802667 38.826666a53.76 53.76 0 0 1-50.901333 48.938667z" fill="#F4511E" p-id="7810"></path><path d="M415.786667 724.352h204.8v57.301333c0 16.853333-13.653333 30.464-30.506667 30.464H446.293333a30.464 30.464 0 0 1-30.464-30.464v-57.301333z" fill="#E64A19" p-id="7811"></path><path d="M472.448 331.093333c0 8.405333-6.826667 15.232-15.232 15.232H404.949333c1.621333-10.282667 3.84-20.48 6.570667-30.506666h45.696c8.405333 0 15.232 6.826667 15.232 15.232z m15.232 60.928c0 8.405333-6.826667 15.232-15.232 15.232H397.482667c0-10.24 1.237333-20.394667 2.56-30.464h72.405333c8.405333 0 15.232 6.826667 15.232 15.232z m-30.464 60.970667c0 8.405333-6.826667 15.232-15.232 15.232h-43.093333a289.536 289.536 0 0 1-1.706667-30.506667h44.8c8.405333 0 15.232 6.826667 15.232 15.274667z m174.165333-106.666667h-52.266666a15.232 15.232 0 0 1 0-30.506666h45.738666c2.730667 10.026667 4.906667 20.224 6.528 30.506666z m7.466667 60.928h-74.965333a15.232 15.232 0 0 1 0-30.464h72.362666c1.408 10.069333 2.133333 20.266667 2.602667 30.464z m0.298667 30.464c0 10.24-0.554667 20.394667-1.664 30.506667h-43.093334a15.232 15.232 0 0 1 0-30.506667h44.8z" fill="#FF7043" p-id="7812"></path></svg>