<?xml version="1.0" standalone="no"?><!DOCTYPE svg PUBLIC "-//W3C//DTD SVG 1.1//EN" "http://www.w3.org/Graphics/SVG/1.1/DTD/svg11.dtd"><svg t="1732600386295" class="icon" viewBox="0 0 1024 1024" version="1.1" xmlns="http://www.w3.org/2000/svg" p-id="9466" xmlns:xlink="http://www.w3.org/1999/xlink" width="200" height="200"><path d="M741.1 165.8c-4.8-41.6-12.4-66-26.7-85.4h0.1l-2.1-2.6-0.8-1c-10.1-12.5-23.4-23.3-40-36.8l-3-2.5c-9.3-7.6-21.9-14.2-37.3-19.8l-1.2-0.4-3.2-1.1c-1.4-0.5-3-1-4.7-1.5l-2.7-0.8V64H404.7V13.8l-2.7 0.8c-1.7 0.5-3.2 1-4.7 1.5l-3.2 1.1-1.2 0.4c-15.5 5.6-28 12.2-37.3 19.8l-3 2.5c-16.6 13.5-29.8 24.3-40 36.8l-0.8 1-2.1 2.6h0.1c-14.3 19.4-21.9 43.8-26.7 85.4-9.7 84-1 202 4.8 280.1 2.4 32.8 4.3 58.8 4.2 72.3l-0.1 7.1c-3 242.7-4.8 389.1 11.4 440.7 2.8 8.8 9.3 16.8 19.2 23.7h-0.1l3.2 2 1 0.6c17 10.4 42.7 18.4 76.4 23.8l1.4 0.2 2.9 0.5c9.5 1.4 19.8 2.6 30.5 3.7l3.6 0.3 1.2 0.1c29.4 2.6 54.8 2.9 64.4 2.9h10.1c9.6 0 34.9-0.3 64.2-2.9l1.2-0.1 3.6-0.3v-0.1c7.2-0.7 14.3-1.4 21.1-2.3l2.8-0.4 1.5-0.2c34.8-4.9 61.8-12.3 80.4-22.1l1.3-0.7 2.5-1.3c13.3-7.8 21.8-17 25.1-27.4 16.2-51.6 14.4-198.1 11.4-440.8l-0.1-7.1c-0.2-13.5 1.8-39.5 4.2-72.3 5.7-77.9 14.5-195.9 4.7-279.9z" fill="#2DAA39" p-id="9467"></path><path d="M622.1 14.6C591.7 5.2 552.7 0 512.1 0 471.5 0 432.4 5.2 402 14.6l-1.5 0.5v53.1h223.1V15.1l-1.5-0.5z" fill="#004A38" p-id="9468"></path><path d="M725.5 173.4C717.1 98.7 700 86.2 658 51.2c-57-47.5-234.7-47.5-291.7 0-42 35-59.1 47.5-67.5 122.2-12.9 114.6 9 294.6 8.4 339-2.9 236.6-4.8 380.6 10.5 430.5 17.7 57.5 194.4 54.3 194.4 54.3s176.7 3.1 194.4-54.3C721.8 893 719.9 749 717 512.4c-0.5-44.4 21.4-224.4 8.5-339z" fill="#5DDB5D" p-id="9469"></path><path d="M696 304.8l0.1-0.5s2.7-11.8 0.9-15c-1.5-2.8-5.8-5.3-13.3-8.6-14.4-6.2-39.3-16.6-78.4-25.1-56-12.2-130.5-12.2-186.6 0-39.1 8.5-64 18.8-78.4 25.1-7.6 3.3-11.8 5.9-13.3 8.6-1.7 3.2 0.9 15 0.9 15l0.1 0.5 23.7 135.3 2.9 16.4s28.9-14.8 74.1-21.5c39-5.7 127.6-5.7 166.6 0 45.2 6.6 74.1 21.5 74.1 21.5l2.9-16.4L696 304.8zM656.3 793.8s-2.1 1.1-6.3 2.8c-15.5 6.2-59.9 20.6-137.9 20.6-71.5 0-121-15-137.9-21-4.2-1.5-6.4-2.4-6.4-2.4-1.6 5.7-2.9 11.4-4.1 17-11.6 55.6-6 108.8-6 108.8s31.4 14.1 76.3 22.3c34.5 6.3 121.4 6.3 156 0 44.9-8.2 76.3-22.3 76.3-22.3s5.6-52.7-5.9-108.2c-1.1-5.8-2.5-11.7-4.1-17.6zM319 595.1l31.2 10.6-5.4-139.9L315 300s-2.6 42.5 0 103.5c1.6 38.5 6.3 91.6 6.2 125.8 0 32.5-1.2 54.5-2.2 65.8zM709.1 300.1l-29.8 165.8-5.3 139.8 31.2-10.6c-1.2-11-2.2-33.3-2.2-65.8-0.1-34.2 4.5-87.3 6.2-125.8 2.5-60.9-0.1-103.4-0.1-103.4zM318.1 608.1c-3.5 43.8 0 204 0 204s7.3-7.6 21-35c12.1-24 14.9-38.5 14.9-38.5l-3.6-117-32.3-13.5zM673.8 621.6l-3.6 117s2.8 14.5 14.9 38.5c13.8 27.3 21 35 21 35s3.5-160.2 0-204l-32.3 13.5z" fill="#2A2E2C" p-id="9470"></path><path d="M318.2 80.6c-1.7 0-3.4-0.2-5.1-0.5l-1.6-0.4 1-1.3c10.2-12.9 23.6-23.8 40.7-37.7l3.1-2.5c9.5-7.7 22.3-14.4 38.2-20.1l1.6-0.6-0.2 1.7c-0.9 7.1-4.7 13.5-10.2 17.6L332.3 76c-4.1 3-9 4.6-14.1 4.6zM705.9 80.6c-5.1 0-9.9-1.6-14.1-4.6l-53.4-39.1c-5.6-4.1-9.3-10.5-10.2-17.6l-0.2-1.7 1.6 0.6c15.9 5.6 28.8 12.4 38.2 20.1l3 2.5c17 13.9 30.5 24.8 40.7 37.7l1 1.3-1.6 0.4c-1.6 0.3-3.3 0.4-5 0.4z" fill="#EFEFEF" p-id="9471"></path><path d="M512.1 445.7c-114.3-2.6-152.6 18.2-152.6 18.2s1.4 277 10.1 304.5c5.9 18.7 77.9 26.9 123.6 30.3H531c45.7-3.4 117.7-11.6 123.6-30.3 8.7-27.5 10.1-304.5 10.1-304.5s-38.3-20.8-152.6-18.2z" fill="#8DE68D" p-id="9472"></path><path d="M308.8 156.9c-7.5 78.9-6.4 118.6-6.4 118.6S326 86.8 384.9 45c0 0-68.8 34.7-76.1 111.9zM715.8 156.9c-7.3-77.2-76.1-112-76.1-112 58.9 41.9 82.5 230.6 82.5 230.6s1.1-39.7-6.4-118.6z" fill="#24A030" p-id="9473"></path><path d="M707.8 310.4s17.8 3.5 18.3 18.8c0.4 15.3-17.8 46.3-18.3 26.7-0.4-19.6-1.6-39.6 0-45.5z" fill="#004923" p-id="9474"></path><path d="M769.9 343.9c-3.9-5.3-39.8-16.5-39.8-16.5-7.1-2.3-9.5 4-10.3 9.3l51.5 15.7c0.5-2.4 0.7-5.6-1.4-8.5z" fill="#009245" p-id="9475"></path><path d="M719.1 336.7h0.1v19.1h-0.1zM719.3 336.7h1.7v19.1h-1.7z" fill="#003518" p-id="9476"></path><path d="M720.9 336.7h1.7v19.1h-1.7zM722.6 336.7h1.7v19.1h-1.7z" fill="#003518" p-id="9477"></path><path d="M724.3 336.7h1.7v19.1h-1.7zM726 336.7h1.7v19.1H726zM727.7 336.7h1.7v19.1h-1.7z" fill="#003518" p-id="9478"></path><path d="M729.4 336.7h1.7v19.1h-1.7zM731.1 336.7h1.7v19.1h-1.7z" fill="#003518" p-id="9479"></path><path d="M732.8 336.7h1.7v19.1h-1.7zM734.5 336.7h1.7v19.1h-1.7z" fill="#003518" p-id="9480"></path><path d="M736.1 336.7h1.7v19.1h-1.7z" fill="#003518" p-id="9481"></path><path d="M737.8 336.7h1.7v19.1h-1.7zM739.5 336.7h1.7v19.1h-1.7zM741.2 336.7h1.7v19.1h-1.7z" fill="#003518" p-id="9482"></path><path d="M742.9 336.7h1.7v19.1h-1.7zM744.6 336.7h1.7v19.1h-1.7z" fill="#003518" p-id="9483"></path><path d="M746.3 336.7h1.7v19.1h-1.7zM748 336.7h1.7v19.1H748zM749.7 336.7h1.7v19.1h-1.7z" fill="#003518" p-id="9484"></path><path d="M751.3 336.7h1.7v19.1h-1.7zM753 336.7h1.7v19.1H753zM754.7 336.7h1.7v19.1h-1.7z" fill="#003518" p-id="9485"></path><path d="M756.4 336.7h1.7v19.1h-1.7zM758.1 336.7h1.7v19.1h-1.7z" fill="#003518" p-id="9486"></path><path d="M759.8 336.7h1.7v19.1h-1.7zM761.5 336.7h1.7v19.1h-1.7zM763.2 336.7h1.7v19.1h-1.7z" fill="#003518" p-id="9487"></path><path d="M764.9 336.7h1.7v19.1h-1.7z" fill="#003518" p-id="9488"></path><path d="M766.5 336.7h1.7v19.1h-1.7zM768.2 336.7h1.7v19.1h-1.7z" fill="#003518" p-id="9489"></path><path d="M769.9 336.7h1.3v19.1h-1.3z" fill="#003518" p-id="9490"></path><path d="M316.1 309.3s-19 3.5-19.4 18.8c-0.4 15.3 19 46.3 19.4 26.7 0.5-19.6 1.8-39.6 0-45.5z" fill="#004923" p-id="9491"></path><path d="M294 326.4s-35.9 11.2-39.8 16.5c-2.3 3.2-1.9 6.8-1.1 9.2l51.4-15.8c-0.8-5.5-3.2-12.3-10.5-9.9z" fill="#009245" p-id="9492"></path><path d="M253 336.3h1.1v18.5H253zM254.1 336.3h1.7v18.5h-1.7zM255.8 336.3h1.7v18.5h-1.7zM257.5 336.3h1.7v18.5h-1.7zM259.2 336.3h1.7v18.5h-1.7z" fill="#003518" p-id="9493"></path><path d="M260.8 336.3h1.7v18.5h-1.7zM262.5 336.3h1.7v18.5h-1.7zM264.2 336.3h1.7v18.5h-1.7zM265.9 336.3h1.7v18.5h-1.7zM267.6 336.3h1.7v18.5h-1.7zM269.3 336.3h1.7v18.5h-1.7zM271 336.3h1.7v18.5H271zM272.7 336.3h1.7v18.5h-1.7zM274.4 336.3h1.7v18.5h-1.7z" fill="#003518" p-id="9494"></path><path d="M276 336.3h1.7v18.5H276zM277.7 336.3h1.7v18.5h-1.7zM279.4 336.3h1.7v18.5h-1.7zM281.1 336.3h1.7v18.5h-1.7zM282.8 336.3h1.7v18.5h-1.7zM284.5 336.3h1.7v18.5h-1.7zM286.2 336.3h1.7v18.5h-1.7zM287.9 336.3h1.7v18.5h-1.7zM289.6 336.3h1.7v18.5h-1.7z" fill="#003518" p-id="9495"></path><path d="M291.2 336.3h1.7v18.5h-1.7zM292.9 336.3h1.7v18.5h-1.7zM294.6 336.3h1.7v18.5h-1.7zM296.3 336.3h1.7v18.5h-1.7zM298 336.3h1.7v18.5H298zM299.7 336.3h1.7v18.5h-1.7zM301.4 336.3h1.7v18.5h-1.7zM303.1 336.3h1.7v18.5h-1.7z" fill="#003518" p-id="9496"></path><path d="M304.7 336.3h0.1v18.5h-0.1z" fill="#003518" p-id="9497"></path><path d="M517.2 1023h-5.1-5c-9.8 0-35.7-0.3-65.5-3l-1.8-0.2 1.1-1.5c2.2-3.1 5.8-4.9 9.5-4.9h123.4c3.8 0 7.3 1.8 9.5 4.9l1.1 1.5-1.8 0.2c-29.9 2.7-55.7 3-65.4 3z" fill="#004707" p-id="9498"></path><path d="M338.5 70.2c-1.5-3.9-3.5-7.5-6.1-10.7-7.3 6.5-13.6 12.7-19 19.5 6.1 1.3 12.8 0.1 18.3-3.9l6.8-4.9z" fill="#F7931E" p-id="9499"></path><path d="M388.1 995.9c-1.2 0-2.4 0.1-3.7 0.3-2.5 0.4-4.9 0.6-7.2 0.6-7.8 0-13.9-2.2-20.3-4.6-6.4-2.4-13.1-4.9-21.7-4.9-3.3 0-6.3 0.6-8.9 1.8l-1.7 0.8 1.6 1c17.1 10.7 43.5 19 78.4 24.5l1.5 0.2-0.3-1.5c-2.4-11.7-8.6-18.2-17.7-18.2zM693.1 992.3c-3.4-3.3-7.9-5-13.5-5-8.6 0-15.2 2.5-21.7 4.9-6.4 2.4-12.4 4.6-20.3 4.6-2.4 0-4.7-0.2-7.2-0.6-1.3-0.2-2.5-0.3-3.7-0.3-12.8 0-16.7 12.4-18 19.8l-0.2 1.4 1.4-0.2c36.3-5 64.2-12.7 82.9-22.9l1.2-0.7-0.9-1z" fill="#DD0000" p-id="9500"></path><path d="M685.7 70.2c1.5-3.9 3.5-7.5 6.1-10.7 7.3 6.5 13.6 12.7 19 19.5-6.1 1.3-12.8 0.1-18.3-3.9l-6.8-4.9z" fill="#F7931E" p-id="9501"></path><path d="M512 621.8m-116.2 0a116.2 116.2 0 1 0 232.4 0 116.2 116.2 0 1 0-232.4 0Z" fill="#005CFF" p-id="9502"></path><path d="M511.9 751.6c-32.8 0-63.9-12.2-88.1-34.6-25.4-23.6-40.2-55.7-41.5-90.3-1.3-34.7 10.9-67.8 34.5-93.2 23.6-25.4 55.7-40.2 90.3-41.5 34.7-1.3 67.8 10.9 93.2 34.5 25.4 23.6 40.2 55.7 41.5 90.3 1.3 34.7-10.9 67.8-34.5 93.2-23.6 25.4-55.7 40.2-90.3 41.5-1.7 0.1-3.4 0.1-5.1 0.1z m0.2-232.4c-1.3 0-2.7 0-4 0.1-56.5 2.2-100.8 49.9-98.6 106.4 2.2 56.5 50 100.9 106.4 98.6 27.4-1 52.7-12.7 71.3-32.8 18.6-20.1 28.3-46.3 27.3-73.6-1-27.4-12.7-52.7-32.8-71.3-19.1-17.8-43.7-27.4-69.6-27.4z" fill="#FFFFFF" p-id="9503"></path></svg>