<?xml version="1.0" standalone="no"?><!DOCTYPE svg PUBLIC "-//W3C//DTD SVG 1.1//EN" "http://www.w3.org/Graphics/SVG/1.1/DTD/svg11.dtd"><svg t="1731648946673" class="icon" viewBox="0 0 1024 1024" version="1.1" xmlns="http://www.w3.org/2000/svg" p-id="8973" xmlns:xlink="http://www.w3.org/1999/xlink" width="200" height="200"><path d="M558.9 185.8C602.7 56.7 674.3 57 712.8 141.3c38.5 84.3-21.7 122.8-26.4 97.1s56-104.4 118.5-80.6 75 172.2-30.4 150.3 64.3-128.3 144.7-33-37.3 187.5-74.4 157.6 70.8-108.1 124.4-16.5c53.6 91.6-51.8 186.9-107.2 122.8-55.4-64.1 92.9-95.8 117.6 54.4s-141.3 150.8-134.8 105c6.5-45.8 111.9 17.7 36.8 130.1s-150.1 9.7-134.8-54.5 44.4 34.5-15.8 106.8-157.4 85.3-166.5 0.9c-5.8-53.4 27.4-36.9 30.3-30.9 29.1 60.2-19.8 113.1-112.1 83.9S415.6 839 453.1 828c37.5-11 11.6 101.1-64.9 97.5-76.5-3.6-146.5-39-122.1-107.9 11.1-31.3 87.4 42.7-32.3 65.8-113.5 22-113.2-125-50.7-170.4 62.5-45.4 60.9 136.5-101.8 20.2-117.9-84.3 8.9-238.2 76.8-174.1S6.2 584.7 56.2 436.3s148.3-75.1 139.4-9.2-175.1-88-107.2-172.2c71.3-88.5 166.8-56 164.7 24.2-2.1 80.2-143.3-70-32.5-128.7s186.6 34.8 146 64.1-51.3-95 16.6-110.7 121.6 32.1 112.6 79.7c-8.9 47.6-30.1-65.9 10.8-79.7s83.5 42.8 76.3 87.9-38.3 36.3-24-5.9z" fill="#BA6A00" p-id="8974"></path><path d="M531.6 947.8c-15.4 0-32.5-2.8-50.3-8.4-18.7-5.9-33.8-13.7-45-23.1-14.1 10-30.7 15.1-48.3 14.3-56.3-2.7-101.5-21.4-120.9-50.2-0.2-0.3-0.4-0.5-0.5-0.8-8.6 3.4-19.1 6.4-31.8 8.8-22.6 4.4-42.2 2.6-58.2-5.4-14.3-7.1-25.5-19.3-32.4-35.2-9.2-21.2-10.6-48.6-4-75.1 0.1-0.4 0.2-0.8 0.3-1.3-17.1-6-37.7-16.6-62.2-34.1C40.7 710.4 23.2 673.4 29 633c4.4-30.6 22.5-59.9 46.2-77.5-7.8-8-14.3-16.9-19.3-26.3-14.7-27.9-16.2-59.6-4.5-94.5 9.6-28.6 21.6-50.8 35.6-66-25.5-44.8-26.5-87.2-2.6-116.9 30.2-37.4 62.9-52.5 90.7-54.5 5.1-21.1 19.7-38.8 43.1-51.2 42.6-22.6 77-21.5 98.4-16.7 7.5 1.7 14.7 4.2 21.4 7.3 9.1-19.7 24.6-33.2 44-37.7 36.5-8.4 72.6 0.3 96.7 23.3 1.2 1.1 2.3 2.3 3.4 3.4 4.2-12.5 11.4-22.7 22.9-26.6 16.6-5.6 34.7-1.3 50.7 12.3 7.7 6.5 14.4 14.6 19.6 23.4C595 98.9 618.6 79 644 77.7c28-1.4 54.7 21 73.2 61.5 4.4 9.7 7.8 19.2 10 28.3 17.7-12.8 46.8-26.9 79.3-14.5 18.5 7 34.3 24.8 43.4 48.8 3.8 10.1 6.3 20.8 7.3 31.4 26.1 5.1 48.7 18.3 65.7 38.5 21.2 25.1 30.9 52.7 28.3 80-1 9.8-3.5 19.5-7.5 28.8 10.4 6.9 20.7 17.4 29.8 33 18.7 31.9 17.1 60.7 12.4 79.2-3.8 15.2-11.1 29.4-21 41.2 8.8 15.6 15.7 34.9 19.6 58.5 12 73-20.8 106.8-41.4 120.4-9.8 6.5-21.1 11.3-32.8 14.1 2.2 8.1 3.6 17.6 3.1 28.6-1 24.1-10.2 49.5-27.6 75.5-40.2 60.2-77.2 55.7-95.6 47.7-12.7-5.5-24.3-16.1-33.2-29.9-5.6 11.9-12.8 23.8-22.1 34.9-31.8 38.2-74.4 61.2-110.4 61.2-7.4 0-14.5-1-21.2-3-7.1-2.1-13.4-5.4-18.9-9.7-13.5 10.4-31.7 15.6-52.8 15.6z m-87.3-38.1c10 8 23.4 14.8 40 20.1 38.3 12.1 71.8 10.4 92.8-4.3-9.5-10.7-15.5-25.4-17.5-43.4-3.4-31 6.2-40.4 14.8-42.9 10.6-3 22.5 4.2 25 9.3 13.4 27.7 11.4 55.7-5.2 75-0.6 0.7-1.3 1.5-2 2.2 4.2 3 8.9 5.3 14.2 6.8 34.8 10.5 85.7-12.6 121-55 10.3-12.3 18.1-25.9 23.7-39.5-0.6-1.2-1.1-2.4-1.7-3.6-9-20.4-11.7-42.9-7.2-61.6 3.8-15.8 8.5-23.6 15.1-24.5 2.3-0.3 6.8 0.1 10.3 6.4 7.1 12.8 8.2 46.9-5.5 82.9 7.9 14.5 19.2 26.4 32.4 32.2 26.9 11.7 56.5-3.9 83.3-44.1 16.3-24.4 25.1-48.1 25.9-70.4 0.4-10.2-0.9-18.9-3-26.3-2.3 0.3-4.5 0.6-6.8 0.7-16.2 1.2-31.3-1.8-41.3-8.1-9.4-5.9-13.9-14.5-12.5-24 1.4-9.9 7-16.7 15.5-18.7 13.7-3.3 31.6 6.5 43.6 23.7 2.7 3.9 5.7 9 8.2 15 10.3-2.4 20.8-6.6 30.5-13 32.1-21.3 45.3-60.5 37.1-110.5-3.5-21-9.4-38.4-16.9-52.5-3.2 3.1-6.7 6-10.3 8.6-30.9 22.1-65.9 18.9-89.2-8.1-18.3-21.2-14.1-36.7-9.9-44 7.9-13.8 27.8-20.5 49.5-16.6 20.7 3.7 43.9 17.1 61.6 43.3 20.7-26.6 28.4-67.2 5.5-106.3-7.9-13.5-16.8-22.7-25.7-28.9-4.8 8.7-11 17-18.3 24.5-12.3 12.5-26.9 21.9-41.2 26.3-15.4 4.8-29 3.4-38.1-4-8.3-6.7-11.3-16.1-8.4-26.4 5.6-19.8 31.4-38 58.8-41.5 10.6-1.4 26.4-1.2 42.9 6.9 11.5-27.6 10-62.2-19.6-97.3-16-19-36.4-29.9-57.6-34.5 0 9.5-1.2 18.7-3.6 26.9-4.7 16.1-13.9 28.6-26.5 36.2-14.3 8.5-32.6 10.6-54.2 6.1-29.3-6.1-36.5-18.2-37.4-27.3-1.5-15.3 14.7-32.4 41.2-43.6 21.9-9.2 46.5-12.8 69.7-10.3-3.6-29.7-19.3-60-43.9-69.3-30.7-11.7-58.4 4-73.7 16 1.1 7.7 1.4 15.1 0.9 22.3-1.1 15.2-6.3 28.9-14.4 38.5-7.7 9.1-17.1 13.5-24.7 11.5-5.1-1.4-8.7-5.5-9.8-11.5-2.9-15.8 13.6-44.5 37.1-64.8-1.9-9.5-5.2-20-10.3-31.1-16.7-36.6-39.9-56.8-63.6-55.6-22.8 1.2-45.1 21.8-63.6 58 6.6 15.2 9.3 31.8 6.9 46.8-2.9 18.1-10.1 30.6-19.3 33.6-4.7 1.5-9.3 0.3-12.8-3.2-6.9-7-7.5-21.5-1.7-38.7l4.7 1.6-4.7-1.6c4.8-14.2 10.1-27.1 15.7-38.7-5.1-10.2-12.1-19.5-20.5-26.6-13.3-11.2-27.9-14.9-41.1-10.5-10.5 3.6-15.6 15.7-18 25.2-0.1 0.5-0.3 1.1-0.4 1.6 10.1 14.9 14 32.1 10.9 49-1.5 7.8-3.8 15.8-10.3 15.7-3.6-0.1-8.7-2.3-11.6-20.7-1.9-12.2-2.3-27.6 0.3-41.8-2.2-2.8-4.6-5.5-7.3-8.1-21.6-20.7-54.3-28.5-87.5-20.8-16.4 3.8-29.6 15.5-37.4 32.7 11.7 7 21.4 16.1 27.9 26.4 12.3 19.7 10.2 39.7-5.3 50.8-11.5 8.3-20.1 5.2-24.3 2.6-12.9-8-19.1-33.1-14.7-59.7 0.9-5.4 2.2-10.6 3.8-15.5-26.4-12.6-65.1-15.7-111.4 8.8-22.5 11.9-33.2 27.2-37.4 42.2 8.7 0.4 16.8 2.1 23.9 4.7 31 11.4 49.6 41.1 48.6 77.5-0.6 22-11.1 26.8-17.3 27.7-0.9 0.1-1.9 0.2-2.9 0.2-20.5 0-48.8-29.6-59.9-63.6-4.1-12.7-5.6-24.8-4.6-36.1-24.8 2.5-53.9 16.7-81.2 50.6-28 34.8-10.8 79.5 2.2 103.3l1.8-1.5c20-16.6 38.9-16.7 51.2-13.8 33.1 7.7 57.9 46 53 81.8-2 14.7-10.9 18.7-16 19.8-15.6 3.3-35.8-10.4-46.5-18.8-16.7-13.2-33.1-31.7-45.6-51.2-12.2 14.1-22.8 34.3-31.5 60.3-18.4 54.6 1.2 90.5 22.8 111.9 4.9-2.9 9.9-5.2 15.1-7 23.2-8.1 45.4-3.6 62.7 12.7 17.1 16.2 16.2 26 12.5 31.3-9 12.8-39.1 6.9-62.9-5.2-10.4-5.3-20-11.8-28.5-19.2C60.4 577.9 43.2 605.3 39 634c-5.2 36.5 10.8 70.2 45.2 94.7 21.5 15.4 41.6 26.3 59.3 32.5 7.6-22.2 20.7-41 36.7-52.6 14.9-10.8 29.2-11.2 38.3-1.1 10.5 11.6 11.4 36.4-3.9 53.7-8 8.9-27.1 22.7-64.6 12.7-6.1 23.5-5.6 48.9 3.3 69.4 13 29.9 41.2 42.2 79.5 34.8 11-2.1 20.6-4.8 28.9-7.9-7.3-16.2-7.5-34.6-0.3-54.7 2.9-8.1 9.5-12.1 17.8-10.7 12.1 2 25.8 15.8 26 32.5 0.1 9.8-4.4 25.3-29.4 37.7 17.9 25.8 59.8 42.6 112.6 45.1 16.7 0.8 30.1-4.3 40.5-11.4-9.7-10.8-14.8-23.3-14.6-36.3 0.2-22.1 16.3-43.4 37.4-49.6 10.1-3 15.7 1.6 18.2 4.5 8.2 9.8 6.5 31.6-4.1 53-5.7 11.9-13 21.7-21.5 29.4z m135.3-61.2c-1.1 0-2.1 0.2-3.1 0.5-6.4 2.4-9 14-7 32 1.7 16.1 6.9 28.9 15.1 38 0.7-0.7 1.3-1.4 1.9-2.1 14.2-16.4 15.6-39.7 3.9-64-1-1.2-6-4.4-10.8-4.4zM458 832.2c-0.9 0-2.1 0.2-3.4 0.6-17.1 5-30.1 22.2-30.3 40.1-0.1 10.8 4.2 20.9 12.6 29.9 10.9-9.9 17.3-21.2 20-26.6 9.5-19.1 10.2-36.4 5.4-42.1-0.6-0.6-1.6-1.9-4.3-1.9z m-181.9-17.3c-2.6 0-4.3 1.4-5.3 4.3-6.2 17.6-6.2 33.5 0.1 47.4 15.9-7.8 24.5-17.7 24.3-28.8-0.2-12.1-10.6-21.6-17.7-22.7-0.5-0.2-0.9-0.2-1.4-0.2z m482-56.2c-1.2 1.3-3.7 5.3-6.4 16.4-3.7 15.6-1.8 33.2 4.1 49.2 6.3-20.2 7.9-39.5 5.8-53.8-0.9-6.9-2.6-10.4-3.5-11.8zM153 764.4c23.8 6.3 42.6 3.3 54.1-9.6 11.5-12.9 11.6-31.9 4-40.3-7.5-8.3-18.9-2-25 2.5-15 10.8-26.4 28.1-33.1 47.4z m707.8-76.1c-1.1 0-2.1 0.1-3 0.3-4.4 1.1-7.1 4.5-7.9 10.4-0.8 5.6 1.9 10.3 7.9 14.1 9 5.6 23.4 8.1 39.3 6.3-2-4.4-4.2-8.1-6.2-11.1-9.6-13.5-21.9-20-30.1-20zM91.6 556.8c9.4 7.8 18.4 13 24 15.8 24.8 12.6 46.7 13.4 50.2 8.3 1.2-1.7 0.2-7.5-11.2-18.3-18.4-17.4-38.7-15.3-52.5-10.5-3.5 1.3-7.1 2.9-10.5 4.7z m793.8-66.3c-13 0-23.8 4.6-28.4 12.7-4.9 8.7-1.8 20.2 8.8 32.5 23.9 27.7 54.9 21.5 75.8 6.5 3.8-2.8 7.5-5.9 10.9-9.4-16.1-25.2-37.5-37.9-56.5-41.3-3.6-0.7-7.2-1-10.6-1zM99.6 370.2c26.4 42.5 66 71.2 82.8 67.7 2.9-0.6 7-2.5 8.2-11.4 4.2-31-17-64-45.4-70.7-14.5-3.4-29.2 0.7-42.6 11.8-1 0.8-2 1.6-3 2.6zM902 378c-3.1 0-6 0.2-8.5 0.5-26.1 3.3-46.5 20.4-50.5 34.3-1.8 6.4-0.1 11.7 5 15.9 13.8 11.2 43.4 1.5 65.9-21.5 6.4-6.6 12.2-14.2 16.8-22.6-10.4-5.1-20.5-6.6-28.7-6.6z m-69.9-137c-18 0-35.6 3.8-50.9 10.3-21.7 9.1-36.2 22.9-35.1 33.4 0.8 8.1 11.3 14.7 29.5 18.5 48.2 10.1 64-17.8 69.1-35.2 2.3-7.9 3.3-16.8 3.1-25.9-5.3-0.8-10.5-1.1-15.7-1.1z m-648.5-34c-1.4 12.7 1.1 24.6 4 33.4 10.6 32.4 37.8 58.7 51.8 56.6 6.9-1 8.5-10.4 8.7-18.1 0.8-32-15.3-58-42.1-67.8-6.6-2.4-14.2-3.9-22.4-4.1z m536.6-20.5c-19 18.3-30.8 40.9-29 51 0.6 3.1 2 3.5 2.6 3.6 3 0.8 9-1.8 14.5-8.3 8-9.5 13.6-25.3 11.9-46.3zM575 158.3c-4 9-7.8 18.7-11.3 29.2-5 14.9-3.9 25.2-0.6 28.5 0.8 0.8 1.5 1 2.6 0.7 4.3-1.4 10-10 12.5-25.6 1.5-10.5 0.3-21.8-3.2-32.8z m-231.7-7.4c-1.2 3.9-2.2 8-2.9 12.2-4 24.3 2.1 44.6 10.1 49.6 1.3 0.8 5.4 3.4 13.2-2.2 13.2-9.5 10-25.6 2.6-37.4-4.8-7.8-12.6-15.7-23-22.2z m144.3 1.2c-0.8 13.6 0.7 26.5 2.7 33.6 0.2-0.9 0.4-1.9 0.7-3.1 1.8-10.3 0.6-20.7-3.4-30.5z" fill="" p-id="8975"></path><path d="M326.3 315.7S281.1 199.8 220.5 273c-67.1 80.9-22.5 132.3 20.8 151.6" fill="#FFB948" p-id="8976"></path><path d="M239.2 429.1c-14-6.3-47.6-24.9-56.1-61.7-6.9-29.7 4.4-62.6 33.5-97.7 16.4-19.7 33.5-28.3 50.8-25.5 38.4 6.2 62.6 67 63.6 69.6l-9.3 3.6c-0.2-0.6-23-58.1-55.9-63.4-13.6-2.2-27.5 5.2-41.5 22-27.1 32.6-37.7 62.6-31.5 89 7.5 32.5 37.8 49.2 50.5 54.8l-4.1 9.3z" fill="" p-id="8977"></path><path d="M310.3 339.4s-27.5-70.3-63.4-27.1c-39.7 47.8-13.3 78.2 12.3 89.6" fill="#FFD4DC" p-id="8978"></path><path d="M701 312.3s46.5-119 107.2-45.8c67.1 80.9 22.5 132.3-20.8 151.6" fill="#FFB948" p-id="8979"></path><path d="M789.4 422.6l-4.1-9.1c12.7-5.7 42.9-22.4 50.5-54.8 6.2-26.5-4.4-56.4-31.5-89-13.7-16.5-27.5-23.8-40.9-21.6-33.7 5.4-57.5 65.4-57.7 66l-9.3-3.6c1.1-2.7 26.2-65.9 65.5-72.3 17.2-2.8 34.1 5.7 50.2 25.1 29.2 35.1 40.4 68 33.5 97.7-8.6 36.8-42.2 55.3-56.2 61.6z" fill="" p-id="8980"></path><path d="M716 336.8s27.5-70.3 63.4-27.1c39.7 47.8 13.3 78.2-12.3 89.6" fill="#FFD4DC" p-id="8981"></path><path d="M516.3 548.7m-300 0a300 300 0 1 0 600 0 300 300 0 1 0-600 0Z" fill="#FFB948" p-id="8982"></path><path d="M516.3 853.7c-81.5 0-158.1-31.7-215.7-89.3s-89.3-134.2-89.3-215.7S243 390.6 300.6 333s134.2-89.3 215.7-89.3S674.4 275.4 732 333c57.6 57.6 89.3 134.2 89.3 215.7S789.6 706.8 732 764.4c-57.6 57.6-134.2 89.3-215.7 89.3z m0-600c-162.7 0-295 132.3-295 295s132.3 295 295 295 295-132.3 295-295-132.3-295-295-295z" fill="" p-id="8983"></path><path d="M467.8 621.6s0.6 8.2 3.1 9.5c2.5 1.3-10.7 2.2-10.5-11.1" fill="#FFFFFF" p-id="8984"></path><path d="M470 634.2c-0.5 0-1 0-1.6-0.1-4.9-0.8-10.6-5-10.5-14.2l5 0.1c0 3.4 0.9 6 2.8 7.6 0.2 0.2 0.4 0.3 0.6 0.5-0.6-2.2-0.9-4.5-1.1-6.3l5-0.4c0.3 3.2 1.1 6.8 1.8 7.5 1.5 0.8 1.8 2.2 1.5 3.3-0.1 0.8-0.9 2-3.5 2z" fill="" p-id="8985"></path><path d="M558.8 621.6s-0.6 8.2-3.1 9.5c-2.5 1.3 10.7 2.2 10.5-11.1" fill="#FFFFFF" p-id="8986"></path><path d="M556.5 634.2c-2.5 0-3.3-1.2-3.6-2.1-0.3-1.1 0-2.5 1.5-3.3 0.7-0.7 1.6-4.3 1.9-7.5l5 0.4c-0.1 1.7-0.4 4.1-1.1 6.3 0.2-0.1 0.4-0.3 0.6-0.5 1.9-1.6 2.9-4.2 2.8-7.6l5-0.1c0.1 9.2-5.6 13.4-10.5 14.2-0.6 0.2-1.1 0.2-1.6 0.2z" fill="" p-id="8987"></path><path d="M516.3 585.4c0 15.5-18.1 36.2-40.4 36.2s-40.4-8.9-40.4-28.1c0-21.4 18.1-28.1 40.4-28.1s40.4 4.5 40.4 20z" fill="#FFFFFF" p-id="8988"></path><path d="M476 624.1c-26.5 0-42.9-11.7-42.9-30.6 0-13.9 7.4-30.6 42.9-30.6 28.5 0 42.9 7.6 42.9 22.5-0.1 17.4-19.8 38.7-42.9 38.7z m0-56.2c-25.1 0-37.9 8.6-37.9 25.6 0 23.7 29 25.6 37.9 25.6 21.6 0 37.9-20.4 37.9-33.7-0.1-11.8-12.4-17.5-37.9-17.5z" fill="" p-id="8989"></path><path d="M516.3 585.4c0 15.5 18.1 36.2 40.4 36.2 22.3 0 40.4-8.9 40.4-28.1 0-21.4-18.1-28.1-40.4-28.1-22.3 0-40.4 4.5-40.4 20z" fill="#FFFFFF" p-id="8990"></path><path d="M556.7 624.1c-23.1 0-42.9-21.3-42.9-38.7 0-14.9 14.4-22.5 42.9-22.5 35.4 0 42.9 16.6 42.9 30.6 0 18.9-16.4 30.6-42.9 30.6z m0-56.2c-25.5 0-37.9 5.7-37.9 17.5 0 13.2 16.3 33.7 37.9 33.7 8.9 0 37.9-1.8 37.9-25.6 0-17-12.7-25.6-37.9-25.6z" fill="" p-id="8991"></path><path d="M508.9 574.8l4.8 4.2c1.2 1 4 1 5.2 0l4.8-4.2c1.2-1-0.3-2.2-2.6-2.2h-9.7c-2.2-0.1-3.7 1.2-2.5 2.2z" fill="" p-id="8992"></path><path d="M516.3 582.2c-1.6 0-3.2-0.5-4.2-1.4l-4.8-4.2c-1.2-1-1.6-2.4-1.1-3.8 0.7-1.8 2.7-2.9 5.3-2.9h9.7c2.6 0 4.6 1.1 5.3 2.9 0.5 1.3 0.1 2.8-1.1 3.8l-4.8 4.2c-1.1 1-2.7 1.4-4.3 1.4zM513 575l2.4 2.1c0.3 0.2 1.6 0.2 2 0l2.3-2H513z" fill="" p-id="8993"></path><path d="M272.5 614.9a57.5 21.3 0 1 0 115 0 57.5 21.3 0 1 0-115 0Z" fill="#FFD4DC" p-id="8994"></path><path d="M660.9 613.5a57.5 21.3 0 1 0 115 0 57.5 21.3 0 1 0-115 0Z" fill="#FFD4DC" p-id="8995"></path><path d="M365.3 548.7m-55 0a55 55 0 1 0 110 0 55 55 0 1 0-110 0Z" fill="" p-id="8996"></path><path d="M365.3 605.2c-31.2 0-56.5-25.3-56.5-56.5s25.3-56.5 56.5-56.5 56.5 25.3 56.5 56.5-25.3 56.5-56.5 56.5z m0-110c-29.5 0-53.5 24-53.5 53.5s24 53.5 53.5 53.5 53.5-24 53.5-53.5-24-53.5-53.5-53.5z" fill="" p-id="8997"></path><path d="M341.6 533.5m-15.2 0a15.2 15.2 0 1 0 30.4 0 15.2 15.2 0 1 0-30.4 0Z" fill="#FFFFFF" p-id="8998"></path><path d="M404.5 566.3c2.4 4.2-1.2 14.8-13.9 22.3-12.7 7.5-26.4 6.4-28.9 2.3s9.7-1.6 22.5-9c12.8-7.6 17.9-19.8 20.3-15.6z" fill="#565656" p-id="8999"></path><path d="M667.1 548.7m-55 0a55 55 0 1 0 110 0 55 55 0 1 0-110 0Z" fill="" p-id="9000"></path><path d="M667.1 605.2c-31.2 0-56.5-25.3-56.5-56.5s25.3-56.5 56.5-56.5 56.5 25.3 56.5 56.5-25.3 56.5-56.5 56.5z m0-110c-29.5 0-53.5 24-53.5 53.5s24 53.5 53.5 53.5 53.5-24 53.5-53.5-24-53.5-53.5-53.5z" fill="" p-id="9001"></path><path d="M643.3 533.5m-15.2 0a15.2 15.2 0 1 0 30.4 0 15.2 15.2 0 1 0-30.4 0Z" fill="#FFFFFF" p-id="9002"></path><path d="M706.3 566.3c2.4 4.2-1.2 14.8-13.9 22.3-12.7 7.5-26.4 6.4-28.9 2.3s9.7-1.6 22.5-9 17.8-19.8 20.3-15.6z" fill="#565656" p-id="9003"></path></svg>