<?xml version="1.0" standalone="no"?><!DOCTYPE svg PUBLIC "-//W3C//DTD SVG 1.1//EN" "http://www.w3.org/Graphics/SVG/1.1/DTD/svg11.dtd"><svg t="1732585989334" class="icon" viewBox="0 0 1024 1024" version="1.1" xmlns="http://www.w3.org/2000/svg" p-id="4222" xmlns:xlink="http://www.w3.org/1999/xlink" width="200" height="200"><path d="M471.9 602.9l-33.5-19.4s-30.6-18.2-2.8-100.3S544.9 374.6 597.9 386c21 6.5 23.1 4.3 58.3 27.4L471.9 602.9z" fill="#1E554A" p-id="4223"></path><path d="M524.1 421.5c84.1-48.5 169.4-10.5 169.6 53.4-4.6 3-92.8 59.1-158.5 97-32.9 19-59 32.7-63.3 31-40.2-15.1-20.5-139.4 52.2-181.4z" fill="#1D5247" p-id="4224"></path><path d="M281.4 400.3l-0.3-0.2c-0.3-0.2-0.5-0.3-0.8-0.5l-50-28.7c-0.5-0.3-0.9-0.6-1.4-0.8l-0.2-0.1c-1.6-0.7-3.3-1.2-5.2-1.2-6.7 0-12.1 5.4-12.1 12.1 0 5 3.1 9.4 7.5 11.2l49.2 29.5c1.9 1.2 4.1 1.8 6.5 1.8 7 0 12.6-5.6 12.6-12.6-0.1-4.3-2.4-8.2-5.8-10.5z" fill="#030415" p-id="4225"></path><path d="M300.7 727.3L402.9 787s6.5 5.1 13.5 4.7c6-0.3 17.4-6 21.7-8.3s35.5-18.7 87.2-53.8l-108.7-63.1s-60.8 39.8-81.9 51-25.6 12.4-34 9.8z" fill="#3AA08B" p-id="4226"></path><path d="M416.9 500.8s49 34.9-0.2 165.6l108.7 63.1c26.7-56.2 34.9-168.4-11.8-168.4l-96.7-60.3zM391.2 810.9l-115.1-67.8s-54.4-44.7-30.6-136.3 30.9-98.2 28.7-111.1-7.8-26.8-7.8-26.8l72.4-10.2 58.1 59.5-36.2 148.2 1.5 64.3 29 80.2z" fill="#277F6E" p-id="4227"></path><path d="M659.3 380c-0.2-0.1-0.4-0.3-0.7-0.4-2.2-1.2-22.8-14.4-50-1.4-17.2 8.2-42.4 20.6-68.6 35.7-63.4 36.6-131.7 81.7-135.3 84.1l108.7 63.1c3.6-2.4 71.9-47.5 135.3-84.1 26.2-15.1 51.1-28.1 68.6-35.7 28.2-12.2 47.8 0.2 50 1.4 0.3 0.2-108-62.7-108-62.7z" fill="#389D89" p-id="4228"></path><path d="M375.1 519.9l21.9-1.7 7.2-7.1c13.8 27.8-38 106.9-37.8 179.9 0.1 39.3 25 104.1 51.5 100.5 6.7-0.9 20.9-8.1 36.8-17.3 31.8-18.4 68.7-43.4 70.6-44.7 1.1-2.4 21.4-47.5 21.2-102.4-0.2-70-31.4-66.2-33-66 3.6-2.4 71.9-47.5 135.3-84.1 31.7-18.3 61.3-33.9 78.7-39.5 53.1-17 93.9 69.1 96 73.6-7.7 4.9-153.8 98.5-208.7 159.9-44.1 49.3-95.4 99.1-141.4 125.6-28.1 16.2-54.1 23.7-75.4 17.3-29.1-8.9-48.7-65.7-48.5-96.5 0.3-66.1 33.5-146.5 33.4-158.6 0-12.1-7.4-26-7.8-26.8v-12.1z" fill="#389C88" p-id="4229"></path><path d="M797.9 386.5h0.4c0.1 0 0.3 0.1 0.4 0.1L690 323.5s-0.1 0-0.1-0.1h-0.1-0.1H689.4h-0.1H689h-0.1-0.1-0.1c-0.1 0-0.2 0.1-0.3 0.2-0.1 0.1-0.3 0.2-0.4 0.3l-0.1 0.1c-0.1 0.1-0.2 0.1-0.3 0.2l-0.3 0.3-0.1 0.1-0.2 0.2-33.5 48.8-0.1 0.1c0 0.1-0.1 0.1-0.1 0.2s-0.1 0.1-0.1 0.2c0 0 0 0.1-0.1 0.1 0 0.1-0.1 0.1-0.1 0.2s-0.1 0.1-0.1 0.2 0 0.1-0.1 0.2c0 0.1-0.1 0.2-0.1 0.2V375.3c0 0.1 0 0.2-0.1 0.4v1c0 0.1 0.1 0.2 0.1 0.3 0 0 0 0.1 0.1 0.1l0.3 0.3 0.2 0.2L762 440.7c-0.1 0-0.1-0.1-0.2-0.2l-0.3-0.3s0-0.1-0.1-0.1c0-0.1-0.1-0.2-0.1-0.3v-0.2-0.3-0.2-0.3c0-0.2 0-0.3 0.1-0.5v-0.1c0-0.2 0.1-0.4 0.2-0.5l0.3-0.6 0.3-0.6 33.5-48.8c0.1-0.1 0.2-0.3 0.3-0.4l0.3-0.3c0.1-0.1 0.2-0.2 0.3-0.2l0.1-0.1c0.1-0.1 0.3-0.2 0.4-0.3 0.1-0.1 0.3-0.1 0.4-0.2h0.1c0 0.4 0.2 0.3 0.3 0.3z" fill="#252525" p-id="4230"></path><path d="M797 386.8c0.7-0.4 1.4-0.5 1.9 0 0.8 0.8 0.6 2.6-0.5 4.1L765 439.7c-0.4 0.6-0.9 1.1-1.4 1.4-0.7 0.4-1.4 0.5-1.9 0-0.8-0.7-0.6-2.6 0.4-4.1l33.5-48.8c0.4-0.6 0.9-1.1 1.4-1.4z" fill="#272728" p-id="4231"></path><path d="M254.5 898.9s29.7 8.6 56.6-38.7c27-47.3 1.6-67.4-0.8-68.6s-50.6-29.1-50.6-29.1l-58 106.7 52.8 29.7z" fill="#BBC7D2" p-id="4232"></path><path d="M323 768.1L281.4 744s-25.5-15.1-63.5 21.9-41.5 82.6-41 91.1 1.2 27.9 12.3 35.4 46.6 28.1 46.6 28.1 11.7 6.9 32.9 0.7c12.1-3.6 35.5-15.5 53.7-47.9 21.6-38.4 19.4-75.5 16.5-85.7-3.8-13.7-15.9-19.5-15.9-19.5z m-42.8 125.6c-23.7 13.7-42.9 2.8-43-24.4-0.1-27.1 19-60.2 42.7-73.8 23.6-13.7 42.9-2.8 43 24.4 0.1 27.1-19.1 60.2-42.7 73.8z" fill="#0F0D18" p-id="4233"></path><path d="M866.9 346.2h0.4c0.1 0 0.2 0.1 0.3 0.1L759 283.2s-0.1 0-0.1-0.1h-0.1-0.1H758.4h-0.1H758h-0.1-0.1-0.1c-0.1 0-0.2 0.1-0.3 0.2l-131.6 76 108.7 63.1 131.6-76c0.1-0.1 0.3-0.2 0.4-0.2h0.4z" fill="#2C2C2D" p-id="4234"></path><path d="M732 426.6v-0.6-0.1c0-0.2 0.1-0.3 0.1-0.5 0.1-0.2 0.1-0.4 0.2-0.6l0.3-0.6c0.1-0.2 0.2-0.3 0.3-0.5 0.1-0.1 0.2-0.3 0.4-0.4l0.1-0.1 0.3-0.3 0.1-0.1c0.1-0.1 0.3-0.2 0.5-0.3l-108.7-63.1c-0.2 0.1-0.3 0.2-0.5 0.3l-0.1 0.1-0.2 0.2-0.1 0.1-0.1 0.1-0.1 0.1c-0.1 0.1-0.1 0.2-0.2 0.2l-0.1 0.1-0.1 0.1c0 0.1-0.1 0.1-0.1 0.2s-0.1 0.1-0.1 0.2-0.1 0.1-0.1 0.2-0.1 0.1-0.1 0.2-0.1 0.1-0.1 0.2-0.1 0.1-0.1 0.2-0.1 0.1-0.1 0.2v0.2c0 0.1 0 0.2-0.1 0.3v0.9c0 0.6 0.2 1 0.4 1.3 0.1 0.1 0.2 0.2 0.3 0.2l108.7 63.1c-0.4-0.2-0.7-0.8-0.7-1.5z" fill="#29292A" p-id="4235"></path><path d="M866 346.5c1.3-0.8 2.4-0.2 2.4 1.4 0 1.5-1.1 3.4-2.4 4.1l-131.6 76c-1.3 0.8-2.4 0.1-2.4-1.4s1.1-3.4 2.4-4.1l131.6-76z" fill="#272728" p-id="4236"></path><path d="M221 836.3c0.1-2.1 0.2-4.2 0.3-6.4v-0.3c0.1-2.1 0.3-4.2 0.5-6.3v-0.4c0.2-2.1 0.4-4.1 0.7-6.2 0-0.2 0-0.3 0.1-0.5 0.2-1.3 0.4-2.7 0.6-4 0-0.3 0.1-0.7 0.2-1 0.2-1 0.3-2.1 0.5-3.1 0.1-0.4 0.1-0.8 0.2-1.3 0.2-1 0.4-2.1 0.6-3.1 0.1-0.3 0.1-0.6 0.2-0.9 0.3-1.3 0.5-2.7 0.8-4 0-0.2 0.1-0.4 0.1-0.6 0.4-2.1 0.9-4.1 1.4-6.2 0-0.2 0.1-0.3 0.1-0.5 0.5-2.1 1-4.1 1.6-6.2 0-0.2 0.1-0.4 0.2-0.5 0.5-1.6 0.9-3.2 1.4-4.8 0.1-0.2 0.1-0.4 0.2-0.6 0.5-1.7 1-3.3 1.6-4.9 0.1-0.3 0.2-0.7 0.3-1 0.5-1.5 1-3 1.5-4.4 0.1-0.1 0.1-0.3 0.2-0.4 0.5-1.4 1-2.7 1.5-4.1 0.1-0.4 0.3-0.7 0.4-1.1 0.5-1.4 1.1-2.7 1.6-4.1 0-0.1 0.1-0.2 0.1-0.2 0.5-1.3 1.1-2.6 1.6-3.9 0.2-0.4 0.3-0.8 0.5-1.1 0.4-1 0.9-2 1.3-3 0.1-0.3 0.3-0.6 0.4-0.9 0.6-1.3 1.2-2.6 1.8-3.8 0.1-0.3 0.3-0.6 0.4-0.9 0.5-1 0.9-1.9 1.4-2.9l0.6-1.2c0.5-0.9 0.9-1.8 1.4-2.8 0.2-0.3 0.3-0.6 0.5-1 0.6-1.2 1.3-2.4 2-3.6 0.1-0.2 0.2-0.4 0.4-0.6 0.6-1 1.1-2 1.7-2.9 0.2-0.4 0.4-0.7 0.7-1.1 0.5-0.9 1.1-1.8 1.6-2.7 0.2-0.3 0.4-0.7 0.6-1 0.7-1.2 1.5-2.4 2.2-3.5 0.1-0.1 0.2-0.3 0.2-0.4 0.7-1.1 1.4-2.2 2.1-3.2 0.2-0.3 0.5-0.7 0.7-1 0.6-1 1.3-1.9 2-2.8 0.2-0.2 0.3-0.5 0.5-0.7 0.9-1.2 1.8-2.5 2.7-3.7l0.6-0.9c0.8-1 1.6-2.1 2.4-3.1 0.2-0.2 0.3-0.4 0.5-0.6 1.1-1.4 2.1-2.7 3.2-4 0.2-0.3 0.4-0.5 0.6-0.8l3.3-3.9c0.1-0.2 0.3-0.3 0.4-0.5 1.5-1.7 3-3.4 4.6-5 0.2-0.2 0.4-0.4 0.5-0.6 1.5-1.6 3.1-3.2 4.7-4.8l0.6-0.6c1.2-1.2 2.4-2.3 3.6-3.4 0.2-0.2 0.5-0.4 0.7-0.6 1.2-1.1 2.5-2.3 3.8-3.4l3.9-3.3c0.2-0.2 0.5-0.4 0.7-0.6 1.3-1 2.5-2 3.8-3 0.2-0.2 0.5-0.4 0.7-0.6 1.3-1 2.7-2 4.1-3 1.4-1 2.8-1.9 4.1-2.9 0.3-0.2 0.5-0.4 0.8-0.5 1.3-0.9 2.7-1.8 4.1-2.6 0.3-0.2 0.5-0.3 0.8-0.5 1.4-0.9 2.9-1.8 4.3-2.6l-54.3-31.6c-1.5 0.8-2.9 1.7-4.3 2.6-0.3 0.2-0.5 0.3-0.8 0.5-1.4 0.9-2.7 1.7-4.1 2.6-0.3 0.2-0.5 0.3-0.8 0.5-1.4 0.9-2.8 1.9-4.2 2.9-1.4 1-2.7 2-4.1 3-0.2 0.2-0.5 0.4-0.7 0.6-1.3 1-2.6 2-3.8 3-0.2 0.2-0.5 0.4-0.7 0.6l-3.9 3.3c-1.3 1.1-2.5 2.3-3.8 3.4-0.2 0.2-0.5 0.4-0.7 0.6-1.2 1.1-2.4 2.3-3.6 3.4l-0.3 0.3-0.3 0.3c-1.6 1.6-3.2 3.2-4.7 4.8-0.2 0.2-0.4 0.4-0.5 0.6-1.5 1.7-3.1 3.3-4.6 5l-0.3 0.3c-0.1 0.1-0.1 0.2-0.2 0.2l-3.3 3.9c-0.2 0.3-0.4 0.5-0.6 0.8-1.1 1.3-2.2 2.7-3.2 4 0 0.1-0.1 0.1-0.1 0.2-0.1 0.2-0.2 0.3-0.4 0.5-0.8 1-1.6 2.1-2.4 3.1l-0.6 0.9c-0.9 1.2-1.8 2.4-2.7 3.7 0 0.1-0.1 0.1-0.1 0.2-0.1 0.2-0.3 0.4-0.4 0.6-0.7 0.9-1.3 1.9-2 2.9-0.2 0.3-0.5 0.7-0.7 1-0.7 1.1-1.4 2.2-2.1 3.2-0.1 0.1-0.1 0.2-0.2 0.3v0.1c-0.7 1.2-1.5 2.3-2.2 3.5-0.2 0.3-0.4 0.7-0.6 1-0.5 0.9-1.1 1.8-1.6 2.7-0.1 0.2-0.3 0.4-0.4 0.6-0.1 0.2-0.2 0.3-0.3 0.5-0.6 1-1.1 2-1.7 2.9-0.1 0.2-0.2 0.4-0.4 0.6-0.7 1.2-1.3 2.4-2 3.6 0 0.1-0.1 0.2-0.1 0.3-0.1 0.2-0.2 0.5-0.4 0.7-0.5 0.9-1 1.8-1.4 2.8l-0.6 1.2c-0.5 1-1 1.9-1.4 2.9-0.1 0.2-0.2 0.4-0.3 0.7 0 0.1-0.1 0.1-0.1 0.2-0.6 1.3-1.2 2.5-1.8 3.8-0.1 0.3-0.3 0.6-0.4 0.9-0.5 1-0.9 2-1.3 3l-0.3 0.6c-0.1 0.2-0.1 0.3-0.2 0.5-0.6 1.3-1.1 2.6-1.6 3.9 0 0.1-0.1 0.2-0.1 0.2-0.6 1.4-1.1 2.7-1.6 4.1-0.1 0.2-0.1 0.3-0.2 0.5s-0.1 0.4-0.2 0.6c-0.5 1.4-1 2.7-1.5 4.1-0.1 0.1-0.1 0.3-0.2 0.4-0.5 1.5-1 3-1.5 4.4-0.1 0.2-0.1 0.3-0.2 0.5s-0.1 0.3-0.2 0.5c-0.5 1.6-1.1 3.3-1.6 4.9-0.1 0.2-0.1 0.4-0.2 0.6-0.5 1.6-1 3.2-1.4 4.8 0 0.1-0.1 0.3-0.1 0.4v0.1c-0.6 2.1-1.1 4.1-1.6 6.2 0 0.2-0.1 0.3-0.1 0.5-0.5 2.1-1 4.1-1.4 6.2 0 0.1-0.1 0.2-0.1 0.3v0.2c-0.3 1.3-0.6 2.7-0.8 4-0.1 0.3-0.1 0.6-0.2 0.9-0.2 1-0.4 2.1-0.6 3.1-0.1 0.4-0.1 0.8-0.2 1.3-0.2 1-0.3 2.1-0.5 3.1-0.1 0.3-0.1 0.7-0.2 1-0.2 1.3-0.4 2.7-0.6 4v0.5c-0.3 2.1-0.5 4.1-0.7 6.2v0.4c-0.2 2.1-0.4 4.2-0.5 6.3v0.3c-0.1 2.1-0.2 4.3-0.3 6.4v0.1c-0.1 2.2-0.1 4.3-0.1 6.5l54.3 31.6c0-2.2 0-4.3 0.1-6.5 0.1-0.2 0.1-0.3 0.1-0.3z" fill="#349582" p-id="4237"></path><path d="M322.1 658.2c-0.5 3.4-10.1 67.4 16.8 116.6-48.2 27.8-114.4 66.1-117.9 68.1-0.3-71.3 39-148.8 101.1-184.7z" fill="#389C88" p-id="4238"></path><path d="M732.9 413.1l-0.4-134.6-163-94.7 0.4 134.6c0 0.3 0 0.6 0.1 0.8 0.2 0.8 0.5 1.3 1.1 1.6l163 94.7c-0.8-0.3-1.2-1.2-1.2-2.4z" fill="#9F7627" p-id="4239"></path><path d="M864.6 198.1s0.1 0 0 0h0.7c0.2 0 0.4 0.1 0.6 0.2l-163-94.7c-0.1 0-0.1-0.1-0.2-0.1s-0.1-0.1-0.2-0.1H701.9h-0.1-0.1-0.1c-0.1 0-0.2 0-0.3 0.1 0 0-0.1 0-0.2 0.1h-0.1c-0.1 0-0.1 0-0.2 0.1-0.2 0.1-0.4 0.2-0.5 0.3l-126.9 73c-0.3 0.1-0.5 0.3-0.7 0.5-0.1 0.1-0.2 0.1-0.2 0.2l-0.3 0.3-0.1 0.1-0.1 0.1-0.2 0.2c-0.1 0.1-0.2 0.3-0.3 0.4l-0.1 0.1-0.1 0.1c0 0.1-0.1 0.1-0.1 0.2-0.1 0.1-0.2 0.2-0.2 0.3-0.1 0.1-0.1 0.2-0.2 0.3-0.1 0.1-0.1 0.2-0.2 0.3-0.1 0.1-0.1 0.2-0.2 0.3 0 0.1-0.1 0.2-0.1 0.3 0 0.1-0.1 0.2-0.1 0.3 0 0.1-0.1 0.2-0.1 0.4 0 0.1 0 0.1-0.1 0.2v0.2c0 0.1-0.1 0.3-0.1 0.4v1.3l163 94.7c0-0.3 0-0.6 0.1-0.9v-0.1c0-0.3 0.1-0.6 0.2-0.8v-0.1l0.3-0.9c0.1-0.3 0.3-0.6 0.5-0.9 0.2-0.3 0.4-0.6 0.5-0.8l0.1-0.1c0.2-0.2 0.4-0.5 0.6-0.7l0.1-0.1 0.5-0.5 0.2-0.2c0.2-0.2 0.5-0.4 0.7-0.5l126.7-73.2c0.2-0.1 0.5-0.2 0.7-0.3h0.5z" fill="#DFA43D" p-id="4240"></path><path d="M863.1 198.6c2.1-1.2 3.9-0.3 3.9 2.2l0.4 134.6c0 2.5-1.7 5.5-3.9 6.7l-126.7 73.2c-2.1 1.2-3.9 0.2-3.9-2.2l-0.4-134.6c0-2.5 1.7-5.4 3.9-6.7l126.7-73.2z" fill="#CE9838" p-id="4241"></path><path d="M491.4 563l-108.7-63.1s-18.5-12.4 4.8-43.9 103.9-48 131.3-76.6 54.7-63.7 69.4-62.2l108.3 63-80.9 92.2-101.1 54.5-23.1 36.1z" fill="#153A58" p-id="4242"></path><path d="M685.6 381.2c6.5-3.8 11.4-3.4 13.8 3.6C706 405 678 435.7 665 447.2c-4.3 3.8-18.5 12.4-35.9 22.5-34.8 20.1-82.5 45.9-89.8 50.1-10.8 6.2-19.5 32.5-33.6 40.6-0.2 0.1-0.4 0.2-0.5 0.3C486.1 571 473 551 490 523c5.6-9.2 17.4-17.9 31.8-26.2 13.8-8 30-15.5 45.4-22.6 15.4-7.1 29.9-13.7 40.5-19.8 1.4-0.8 2.7-1.6 4-2.4 22.3-14.1 54.9-59.8 73.9-70.8z" fill="#143856" p-id="4243"></path><path d="M400.1 265.5s-10.2 44.7-35.1 65.6-79.3 53.4-79.3 53.4 4.7 14.4-2 16-8.3-7-15.8-4.8c-14 4.1-8.6 21-8.6 21s-30.7-5.6-32.3-24.4c-1.5-18.8 17.9-27 34.1-33.1 16.3-6.1 64-45.6 72.2-55.1s27.4-57.8 27.4-57.8l39.4 19.2z" fill="#EFBBA7" p-id="4244"></path><path d="M399.7 187.5s-49.4 44.5-41.3 61.8c0 0 13.4 17.7 44.3 23.8s-3-85.6-3-85.6z" fill="#A8D5AF" p-id="4245"></path><path d="M455.5 695s0.5 9.1-3.6 17.8c-4.1 8.6-25.9 53.9 0 57.4 25.9 3.6 36.5-35.6 38.8-45.2 2.3-9.7 0-34.1 0-34.1l-35.2 4.1zM376.2 642.3c-1.6 4.1-3.5 8.6-6.7 12.9-1.9 13-3 26.4-3 40.1 0 4-0.7 8.7 0 12.7 0.7-0.3 2.4-1.2 3.1-1.6 13.2-8.1 50.3-28 51-31.5 0.7-3.6 0-32.5 0-32.5s-41.4-8.2-44.4-0.1z" fill="#0C1220" p-id="4246"></path><path d="M390 509l10 9.6v0.2c9.1-7 35.4-26.6 44.3-26 10.8 0.7 0 42.7 0 42.7s-0.8 118.1 1.6 164.1h45c5.1-0.4 8.5-0.8 8.5-0.8s18.8-112.4 23.9-140.5c2.9-10.6 11.9-31.1 16.6-35.7 8.8-8.8 59-43.4 59.6-73.9 0.7-30.5-7.8-50.2-7.8-50.2l-147.4-2.7s-86 40.7-112.2 79.5L390 509z" fill="#0F2542" p-id="4247"></path><path d="M423.2 650s-3.7-69.6-21.3-101.6c-7.2 20.7-24.4 60.1-32.4 106.8 5 11.6 53.7-5.2 53.7-5.2z" fill="#0F2542" p-id="4248"></path><path d="M389.4 222.7c1.1 28.1 39 118.9 51.2 135.9 4.6 12.9-4.7 48.5 1.7 59.3 0 0 11.5 39 73.5 20.7s75.9-40 75.9-40 9.4-184.4-55.4-218c-41.4-21.6-150-32.5-146.9 42.1z" fill="#179EA2" p-id="4249"></path><path d="M436.8 176.6v47.7l26.1 4.8 23.1-23.4v-66.4z" fill="#F2A296" p-id="4250"></path><path d="M486 175.4c0 25.5-14.4 45.4-31.7 45.4-17.4 0-17.4-14.8-17.4-40.3 0-4.7 0.2-9.2 0.7-13.5-3.4 0.7-6.6 1.5-9.8 2.5-1.4 6.3-2.2 13.1-2.2 20.3 0 31.3 6.5 50.8 27.9 50.8 21.3 0 46-25.1 46-56.4 0-5.9-0.6-11.3-1.7-16.2-3.1-0.6-8.5-1.5-11.7-1.9-0.1 2.7-0.1 6.2-0.1 9.3z" fill="#0F2542" p-id="4251"></path><path d="M401.9 123.3s13.3 55 31.2 57 40.8-13.3 51.9-29.9-7.5-62.3-7.5-62.3l-66.8 5.4-8.8 29.8z" fill="#F8CBB8" p-id="4252"></path><path d="M382.917523 124.436034a18.3 42.9 84.192 1 0 85.359553-8.682549 18.3 42.9 84.192 1 0-85.359553 8.682549Z" fill="#00437E" p-id="4253"></path><path d="M508.7 107.4c0 32-26.4 66.1-52.1 23.2-5-8.3-63.8 8.8-63.8-23.2s25.9-57.9 57.9-57.9 58 25.9 58 57.9z" fill="#0F2542" p-id="4254"></path><path d="M344.4 573.5c0 25.3-8.5 40.9-31 40.9s-42.5-19.9-42.5-45.2 9.1-36.7 31.6-36.7 41.9 23.7 41.9 41z" fill="#333334" p-id="4255"></path><path d="M273.39178 583.522897a36.2 26.6 75.137 1 0 51.420031-13.646262 36.2 26.6 75.137 1 0-51.420031 13.646262Z" fill="#FFFFFF" p-id="4256"></path><path d="M370.3 529.2l-0.1-44.8-108.7-63.1 0.1 44.8c0 0.6 0.1 1.2 0.2 1.8 0.3 1.6 1.1 2.8 2.2 3.5l108.7 63.1c-1.5-0.9-2.4-2.7-2.4-5.3z" fill="#1C7A6C" p-id="4257"></path><path d="M293.6 396.1c-0.2-0.1-0.3-0.2-0.5-0.2h-0.1-0.1c-0.1 0-0.1-0.1-0.2-0.1s-0.2 0-0.2-0.1h-0.1-0.1c-0.2 0-0.3 0-0.5-0.1h-0.5-0.7c-0.1 0-0.2 0-0.3 0.1h-0.2c-0.1 0-0.1 0-0.2 0.1-0.2 0.1-0.4 0.1-0.6 0.2-0.1 0-0.1 0-0.2 0.1 0 0-0.1 0-0.1 0.1-0.3 0.1-0.7 0.3-1 0.5l-18.1 10.5c-0.3 0.2-0.5 0.3-0.8 0.5-0.1 0.1-0.2 0.1-0.2 0.2-0.2 0.1-0.3 0.3-0.5 0.4-0.1 0.1-0.2 0.2-0.3 0.2-0.2 0.1-0.3 0.3-0.5 0.4l-0.3 0.3-0.2 0.2-0.2 0.2c-0.2 0.2-0.4 0.4-0.5 0.6l-0.2 0.2c0 0.1-0.1 0.1-0.1 0.2-0.1 0.1-0.2 0.3-0.3 0.4-0.1 0.1-0.1 0.2-0.2 0.2-0.1 0.1-0.1 0.2-0.2 0.2-0.1 0.1-0.2 0.2-0.2 0.3l-0.2 0.2c-0.1 0.1-0.2 0.3-0.3 0.4-0.1 0.1-0.1 0.2-0.2 0.2 0 0 0 0.1-0.1 0.1-0.1 0.2-0.3 0.5-0.4 0.7l-0.1 0.1c-0.1 0.2-0.2 0.3-0.3 0.5 0 0.1-0.1 0.2-0.1 0.2 0 0.1-0.1 0.2-0.1 0.2 0 0.1-0.1 0.1-0.1 0.2l-0.3 0.6s0 0.1-0.1 0.1c-0.1 0.2-0.2 0.5-0.3 0.7v0.1c0 0.1-0.1 0.2-0.1 0.3 0 0.1-0.1 0.3-0.1 0.4 0 0.1-0.1 0.2-0.1 0.3 0 0.1-0.1 0.2-0.1 0.3 0 0.1 0 0.1-0.1 0.2 0 0.1-0.1 0.2-0.1 0.4 0 0.1-0.1 0.3-0.1 0.4v0.2c0 0.1 0 0.2-0.1 0.3 0 0.2-0.1 0.4-0.1 0.6v0.4c-0.1 0.5-0.1 1-0.1 1.4l108.7 63.1c0-0.5 0-0.9 0.1-1.4v-0.4c0-0.2 0.1-0.4 0.1-0.6 0-0.2 0.1-0.3 0.1-0.5 0-0.1 0.1-0.3 0.1-0.4 0-0.2 0.1-0.4 0.2-0.6 0-0.1 0.1-0.2 0.1-0.3 0.1-0.2 0.1-0.4 0.2-0.7 0-0.1 0.1-0.2 0.1-0.3 0.1-0.3 0.2-0.6 0.4-0.9 0 0 0-0.1 0.1-0.1 0.1-0.3 0.2-0.5 0.4-0.8 0-0.1 0.1-0.2 0.1-0.2 0.1-0.2 0.3-0.5 0.4-0.7l0.1-0.1c0.2-0.3 0.3-0.6 0.5-0.8 0.1-0.1 0.1-0.2 0.2-0.2 0.1-0.2 0.3-0.4 0.4-0.6 0.1-0.1 0.2-0.2 0.2-0.3 0.1-0.2 0.2-0.3 0.4-0.5 0.1-0.1 0.2-0.3 0.3-0.4 0.1-0.1 0.2-0.2 0.3-0.4 0.2-0.2 0.4-0.4 0.5-0.6l0.3-0.3 0.3-0.3c0.2-0.1 0.3-0.3 0.5-0.4 0.1-0.1 0.2-0.2 0.3-0.2 0.2-0.1 0.3-0.3 0.5-0.4 0.1-0.1 0.2-0.1 0.2-0.2 0.3-0.2 0.5-0.3 0.8-0.5l18.1-10.5c0.3-0.2 0.7-0.4 1-0.5 0.1 0 0.2-0.1 0.3-0.1 0.2-0.1 0.4-0.1 0.6-0.2 0.1 0 0.2-0.1 0.4-0.1 0.1 0 0.2-0.1 0.3-0.1 0.1 0 0.3-0.1 0.4-0.1H400.4c0.2 0 0.4 0 0.6 0.1h0.1c0.2 0 0.3 0.1 0.5 0.1h0.1c0.2 0.1 0.4 0.2 0.5 0.3l-108.6-63z" fill="#359281" p-id="4258"></path><path d="M396.4 459.8c4.5-2.6 8.2-0.5 8.2 4.7l0.1 44.8c0 5.2-3.7 11.5-8.2 14.2L378.4 534c-4.5 2.6-8.2 0.5-8.2-4.7l-0.1-44.8c0-5.2 3.7-11.5 8.2-14.1l18.1-10.6z" fill="#338E7D" p-id="4259"></path><path d="M800.9 521.7l-13.6-7.9s-4.4-1.3-2.7-10.9 8.4-13.6 8.4-13.6l22.6-13.3s3.7-3.1 9.1 0c5.4 3.1 12.3 7.1 12.3 7.1l-36.1 38.6z" fill="#DFA43D" p-id="4260"></path><path d="M829.1 484c6-3.5 10.9-0.7 11 6.2 0 7-4.9 15.4-10.9 18.9L808.7 521c-6 3.5-10.9 0.7-11-6.3 0-6.9 4.9-15.4 10.9-18.9l20.5-11.8z" fill="#CE9838" p-id="4261"></path><path d="M710.4 533.3c0.1 0 0.2-0.1 0.3-0.1 0.9-0.4 1.8-0.8 2.7-1.1 0.2-0.1 0.4-0.1 0.5-0.2 0.9-0.3 1.7-0.7 2.6-1 0.1 0 0.2-0.1 0.3-0.1 0.8-0.3 1.6-0.5 2.4-0.7 0.1 0 0.3-0.1 0.4-0.1 0.6-0.2 1.3-0.3 1.9-0.5 0.3-0.1 0.6-0.1 0.9-0.2 0.9-0.2 1.8-0.4 2.7-0.5h0.1l2.4-0.3c0.3 0 0.5 0 0.8-0.1 0.6 0 1.1-0.1 1.7-0.1h3c0.7 0 1.5 0.1 2.2 0.2 0.2 0 0.3 0 0.5 0.1l1.8 0.3c0.2 0 0.4 0.1 0.6 0.1 0.7 0.1 1.3 0.3 2 0.5h0.1c0.7 0.2 1.3 0.4 2 0.7 0.2 0.1 0.4 0.1 0.5 0.2 0.5 0.2 1.1 0.4 1.6 0.7 0.1 0.1 0.3 0.1 0.4 0.2 0.7 0.3 1.3 0.7 2 1l-40.7-23.7c-0.1-0.1-0.2-0.1-0.3-0.2-0.5-0.3-1.1-0.6-1.6-0.8-0.1-0.1-0.3-0.1-0.4-0.2-0.3-0.1-0.6-0.3-0.9-0.4-0.2-0.1-0.4-0.2-0.6-0.2-0.2-0.1-0.3-0.1-0.5-0.2-0.6-0.2-1.3-0.5-2-0.7h-0.1c-0.6-0.2-1.3-0.3-2-0.5-0.2 0-0.4-0.1-0.6-0.1-0.2 0-0.4-0.1-0.6-0.1-0.4-0.1-0.8-0.1-1.1-0.2-0.2 0-0.3 0-0.5-0.1-0.7-0.1-1.3-0.1-2-0.2H689c-0.4 0-0.7 0.1-1.1 0.1-0.3 0-0.5 0-0.8 0.1l-2.4 0.3h-0.1c-0.9 0.1-1.8 0.3-2.7 0.5-0.3 0.1-0.6 0.1-0.9 0.2-0.6 0.1-1.1 0.3-1.7 0.4-0.1 0-0.2 0-0.2 0.1-0.1 0-0.3 0.1-0.4 0.1-0.8 0.2-1.6 0.5-2.4 0.8-0.1 0-0.2 0.1-0.3 0.1-0.9 0.3-1.7 0.6-2.6 1-0.2 0.1-0.3 0.1-0.5 0.2s-0.4 0.1-0.5 0.2l-2.1 0.9c-0.1 0-0.2 0.1-0.3 0.1l-2.4 1.2c-0.2 0.1-0.5 0.2-0.7 0.4l-2.7 1.5c-1 0.5-1.9 1.1-2.8 1.7l-0.9 0.6c-0.6 0.4-1.3 0.8-1.9 1.3-0.3 0.2-0.7 0.5-1 0.7-0.6 0.4-1.2 0.8-1.7 1.3-0.4 0.3-0.7 0.5-1.1 0.8-0.6 0.4-1.2 0.9-1.7 1.4-0.3 0.3-0.7 0.5-1 0.8-0.7 0.5-1.3 1.1-2 1.6-0.2 0.2-0.5 0.4-0.7 0.6-0.9 0.8-1.7 1.6-2.6 2.4-0.2 0.2-0.4 0.3-0.5 0.5-0.6 0.5-1.1 1.1-1.7 1.6-0.1 0.1-0.2 0.2-0.2 0.3-1 1-2 2-3 3.1 0 0.1-0.1 0.1-0.1 0.2-0.9 1-1.9 2-2.8 3.1l-0.3 0.3c-0.4 0.4-0.7 0.8-1.1 1.3-0.4 0.4-0.7 0.9-1.1 1.3-0.5 0.6-0.9 1.1-1.4 1.7-0.4 0.4-0.7 0.9-1.1 1.3-0.1 0.1-0.1 0.2-0.2 0.2-0.7 0.9-1.3 1.8-2 2.7l-0.1 0.1c-0.6 0.8-1.2 1.7-1.8 2.6 0 0.1-0.1 0.1-0.1 0.2l-3 4.5c-0.1 0.1-0.2 0.3-0.3 0.4-0.1 0.2-0.3 0.4-0.4 0.7-0.8 1.2-1.5 2.5-2.3 3.8-0.1 0.2-0.2 0.4-0.4 0.6 0 0.1-0.1 0.2-0.1 0.2-0.8 1.5-1.7 2.9-2.4 4.4-0.1 0.1-0.1 0.2-0.2 0.4s-0.2 0.5-0.4 0.7l-1.8 3.6c-0.1 0.2-0.3 0.5-0.4 0.7-0.1 0.1-0.1 0.3-0.2 0.4l-2.1 4.5s0 0.1-0.1 0.1c-0.4 1-0.9 2-1.3 3-0.1 0.3-0.2 0.6-0.3 0.8-0.2 0.5-0.4 1-0.6 1.4-0.1 0.4-0.3 0.7-0.4 1.1-0.1 0.3-0.3 0.7-0.4 1-0.3 0.9-0.7 1.9-1 2.8-0.1 0.2-0.1 0.4-0.2 0.5v0.1c-0.4 1.1-0.7 2.2-1 3.3l-0.3 0.9c-0.2 0.6-0.4 1.2-0.5 1.8-0.1 0.2-0.1 0.4-0.2 0.6-0.1 0.5-0.3 1-0.4 1.5-0.2 0.7-0.3 1.4-0.5 2-0.1 0.5-0.2 1-0.4 1.6-0.1 0.4-0.2 0.7-0.2 1.1-0.1 0.3-0.1 0.5-0.1 0.8-0.2 0.8-0.3 1.5-0.4 2.3-0.1 0.5-0.2 1.1-0.3 1.6-0.1 0.8-0.2 1.6-0.4 2.4-0.1 0.4-0.1 0.7-0.2 1.1 0 0.2 0 0.3-0.1 0.5 0 0.4-0.1 0.7-0.1 1.1-0.1 0.8-0.2 1.5-0.2 2.3 0 0.4-0.1 0.8-0.1 1.2-0.1 0.8-0.1 1.5-0.1 2.3 0 0.3 0 0.7-0.1 1 0 1.1-0.1 2.2-0.1 3.2 0 10.5 2.1 19.2 5.8 25.9 1.2 2.2 2.7 4.3 4.2 6.1 0.5 0.6 1.1 1.2 1.6 1.7 1.7 1.6 3.5 3 5.5 4.2l40.7 23.7c-10.6-6.2-17.2-19.3-17.2-37.9 0-1.1 0-2.2 0.1-3.2 0-0.3 0-0.7 0.1-1 0-0.8 0.1-1.5 0.1-2.3 0-0.4 0.1-0.8 0.1-1.2 0.1-0.8 0.1-1.5 0.2-2.3 0-0.4 0.1-0.7 0.1-1.1 0.1-0.5 0.1-1.1 0.2-1.6 0.1-0.8 0.2-1.6 0.4-2.4 0.1-0.5 0.2-1.1 0.3-1.6 0.1-0.8 0.3-1.5 0.4-2.3 0.1-0.6 0.3-1.2 0.4-1.8 0.1-0.5 0.2-1 0.4-1.6 0.2-0.7 0.3-1.4 0.5-2 0.1-0.5 0.3-1 0.4-1.5 0.2-0.8 0.5-1.6 0.7-2.4l0.3-0.9c0.3-1.1 0.7-2.3 1.1-3.4 0.1-0.2 0.1-0.4 0.2-0.5 0.3-0.9 0.6-1.9 1-2.8 0.1-0.3 0.3-0.7 0.4-1 0.3-0.8 0.6-1.7 1-2.5 0.1-0.3 0.2-0.5 0.3-0.8 0.4-1.1 0.9-2.1 1.3-3.2l2.1-4.5 0.6-1.2 1.8-3.6c0.2-0.4 0.4-0.7 0.6-1.1 0.8-1.5 1.6-2.9 2.4-4.4 0.2-0.3 0.3-0.5 0.5-0.8 0.7-1.3 1.5-2.5 2.3-3.7 0.2-0.4 0.5-0.7 0.7-1.1l3-4.5c0.6-0.9 1.3-1.8 2-2.8l0.1-0.1c0.7-1 1.5-1.9 2.2-2.9 0.4-0.5 0.7-0.9 1.1-1.3 0.4-0.6 0.9-1.1 1.3-1.7 0.4-0.4 0.8-0.9 1.1-1.3 0.4-0.5 0.9-1 1.3-1.5 0.9-1 1.8-2.1 2.8-3.1 0-0.1 0.1-0.1 0.1-0.2 1-1.1 2-2.1 3-3.1 0.6-0.6 1.3-1.3 2-1.9 0.2-0.2 0.4-0.3 0.5-0.5 0.9-0.8 1.7-1.6 2.6-2.4 0.2-0.2 0.5-0.4 0.7-0.6 0.6-0.6 1.3-1.1 1.9-1.6 0.3-0.3 0.7-0.5 1-0.8 0.6-0.5 1.2-0.9 1.7-1.4 0.4-0.3 0.7-0.5 1.1-0.8 0.6-0.4 1.2-0.9 1.7-1.3 0.3-0.2 0.7-0.5 1-0.7 0.6-0.4 1.3-0.9 1.9-1.3l0.9-0.6c0.9-0.6 1.9-1.2 2.8-1.7l2.7-1.5c0.2-0.1 0.5-0.2 0.7-0.4 0.7-0.7 1.5-1.1 2.3-1.5z" fill="#0F0E19" p-id="4262"></path><path d="M704.6 536.4c32.6-18.8 59.2-3.7 59.3 33.8 0.1 37.5-26.3 83.2-58.9 102-32.6 18.8-59.2 3.7-59.3-33.8-0.1-37.5 26.2-83.2 58.9-102z m0.3 114.5c22.4-12.9 40.5-44.3 40.5-70.1-0.1-25.8-18.3-36.2-40.7-23.2-22.4 13-40.5 44.3-40.5 70.1 0 25.8 18.2 36.2 40.7 23.2" fill="#0F0D18" p-id="4263"></path><path d="M678.6 655.9c4.2 2.4 33.4 3.4 56.7-37 27.1-47.2 1.6-69.1-0.8-70.3s-50.6-29.1-50.6-29.1l-38.1 94.9c-0.1 0 18.6 33.5 32.8 41.5z" fill="#BBC7D2" p-id="4264"></path><path d="M607.4 676.8l-30.7-18.6s-31.9-31.4-0.2-113.4 126.2-91.8 150.4-84.7 31.8 7.7 61.5 28l-181 188.7z" fill="#359380" p-id="4265"></path><path d="M659.6 495.3c84.1-48.5 167.7-6.9 167.9 56.9-3.2 1.9-63.3 37.6-122 71.5-49.5 28.6-95.8 54.5-98.1 53-35.5-23.3-20.5-139.4 52.2-181.4z" fill="#3A9C87" p-id="4266"></path><path d="M416.2 368.3c0-1.2 0.1-2.3 0.2-3.4v-0.3l0.3-3.3v-0.3c0.1-1.1 0.2-2.1 0.4-3.1v-0.3c0.2-1.2 0.3-2.4 0.5-3.6v-0.2c0.2-1.2 0.4-2.4 0.7-3.6 0-0.1 0-0.2 0.1-0.3 0.1-0.6 0.3-1.2 0.4-1.8 0-0.1 0.1-0.2 0.1-0.3 0.2-0.6 0.3-1.3 0.5-1.9 0-0.2 0.1-0.4 0.1-0.5 0.1-0.3 0.2-0.6 0.2-0.9 0.1-0.2 0.1-0.4 0.2-0.6 0.1-0.3 0.2-0.6 0.3-0.8 0.1-0.2 0.1-0.3 0.2-0.5 0.2-0.6 0.4-1.2 0.7-1.8 0-0.1 0.1-0.2 0.1-0.4 0.2-0.4 0.3-0.8 0.5-1.1 0-0.1 0.1-0.2 0.1-0.3 0.2-0.4 0.3-0.8 0.5-1.1 0.2-0.3 0.3-0.7 0.5-1 0.2-0.3 0.3-0.6 0.5-0.9v-0.1c0.1-0.3 0.3-0.5 0.5-0.7 0-0.1 0.1-0.1 0.1-0.2 0.1-0.2 0.2-0.3 0.3-0.5 0.1-0.1 0.1-0.2 0.2-0.2 0.1-0.1 0.2-0.3 0.3-0.4 0.1-0.1 0.1-0.2 0.2-0.2l0.3-0.3c0.1-0.1 0.2-0.2 0.3-0.4l0.2-0.2 0.4-0.4 0.2-0.2c0.2-0.2 0.4-0.3 0.6-0.4 0.2-0.1 0.3-0.2 0.5-0.2 0.1 0 0.1-0.1 0.2-0.1s0.2-0.1 0.4-0.1h0.4c0.1 0 0.2 0.1 0.3 0.1l-27.2-15.8s-0.1 0-0.1-0.1h-0.1-0.1-0.1-0.2H400.6s-0.1 0-0.2 0.1c-0.1 0-0.1 0-0.2 0.1h-0.1c-0.1 0.1-0.2 0.1-0.4 0.2s-0.4 0.3-0.6 0.4l-0.2 0.2c-0.1 0.1-0.3 0.2-0.4 0.4l-0.1 0.1-0.1 0.1c-0.1 0.1-0.2 0.2-0.3 0.4 0 0.1-0.1 0.1-0.1 0.1s-0.1 0.1-0.1 0.2c-0.1 0.1-0.1 0.2-0.2 0.2 0 0.1-0.1 0.1-0.1 0.2-0.1 0.1-0.1 0.2-0.2 0.2-0.1 0.1-0.1 0.2-0.2 0.2l-0.1 0.1c-0.1 0.1-0.2 0.3-0.3 0.4 0 0.1-0.1 0.1-0.1 0.2v0.1c-0.1 0.2-0.3 0.5-0.4 0.7-0.2 0.3-0.3 0.5-0.5 0.8-0.2 0.3-0.3 0.7-0.5 1-0.2 0.4-0.3 0.7-0.5 1.1v0.1c0 0.1-0.1 0.1-0.1 0.2-0.2 0.4-0.3 0.7-0.5 1.1 0 0.1-0.1 0.1-0.1 0.2 0 0 0 0.1-0.1 0.1-0.2 0.6-0.4 1.2-0.7 1.8 0 0 0 0.1-0.1 0.1 0 0.1-0.1 0.2-0.1 0.3-0.1 0.3-0.2 0.5-0.3 0.8-0.1 0.2-0.1 0.4-0.2 0.6-0.1 0.3-0.2 0.6-0.2 0.8 0 0.1-0.1 0.2-0.1 0.4v0.2c-0.2 0.6-0.3 1.3-0.5 1.9 0 0.1-0.1 0.2-0.1 0.4-0.1 0.6-0.3 1.2-0.4 1.8 0 0.1 0 0.2-0.1 0.2v0.1c-0.2 1.2-0.5 2.3-0.7 3.6v0.2c-0.2 1.2-0.4 2.4-0.5 3.6v0.4c-0.1 1-0.2 2.1-0.4 3.1v0.3l-0.3 3.3v0.3c-0.1 1.1-0.1 2.3-0.2 3.4v0.2c0 1.2-0.1 2.4-0.1 3.6 0 6.4 0.6 12.1 1.6 16.6 1.3 5.9 3.3 9.9 5.6 11.2l27.2 15.8c-4.2-2.4-7.2-13.2-7.2-27.9 0-1.2 0-2.4 0.1-3.6 0 0.1 0 0 0 0z" fill="#ADADAD" p-id="4267"></path><path d="M427.1 331.6c6.1-3.5 0 15.3 0.1 34.1 0.1 18.9 6.2 30.6 0.1 34.1-6.1 3.5-11-8.9-11.1-27.8-0.1-18.8 4.8-36.9 10.9-40.4z" fill="#C5C5C5" p-id="4268"></path><path d="M355.3 289.1c0-0.1 0-0.1 0 0h0.4c0.1 0 0.3 0.1 0.4 0.1L329 273.4s-0.1 0-0.1-0.1h-0.1-0.1-0.4-0.1-0.1c-0.1 0-0.1 0-0.2 0.1h-0.1c-0.1 0-0.1 0-0.2 0.1 0 0-0.1 0-0.1 0.1-0.1 0-0.2 0.1-0.3 0.2-0.2 0.1-0.4 0.3-0.6 0.4l-0.2 0.2c-0.1 0.1-0.3 0.2-0.4 0.4l-0.1 0.1-0.1 0.1c-0.1 0.1-0.2 0.2-0.3 0.4 0 0.1-0.1 0.1-0.1 0.1s-0.1 0.1-0.1 0.2c-0.1 0.1-0.1 0.2-0.2 0.2 0 0.1-0.1 0.1-0.1 0.2-0.1 0.1-0.1 0.2-0.2 0.2-0.1 0.1-0.1 0.2-0.2 0.2l-0.1 0.1c-0.1 0.1-0.2 0.3-0.3 0.4 0 0.1-0.1 0.1-0.1 0.2v0.1c-0.1 0.2-0.3 0.5-0.4 0.7-0.2 0.3-0.3 0.5-0.5 0.8-0.2 0.3-0.3 0.7-0.5 1-0.2 0.4-0.3 0.7-0.5 1.1v0.1c0 0.1-0.1 0.1-0.1 0.2-0.2 0.4-0.3 0.7-0.5 1.1 0 0.1-0.1 0.1-0.1 0.2 0 0 0 0.1-0.1 0.1-0.2 0.6-0.4 1.2-0.7 1.8 0 0 0 0.1-0.1 0.1 0 0.1-0.1 0.2-0.1 0.3-0.1 0.3-0.2 0.5-0.3 0.8-0.1 0.2-0.1 0.4-0.2 0.6-0.1 0.3-0.2 0.6-0.2 0.9 0 0.1-0.1 0.2-0.1 0.4v0.2c-0.2 0.6-0.3 1.3-0.5 1.9 0 0.1-0.1 0.2-0.1 0.4-0.1 0.6-0.3 1.2-0.4 1.8 0 0.1 0 0.2-0.1 0.2v0.1c-0.2 1.2-0.5 2.3-0.7 3.5v0.2c-0.2 1.2-0.4 2.4-0.5 3.6v0.4c-0.1 1-0.2 2.1-0.4 3.1v0.3l-0.3 3.3v0.3c-0.1 1.1-0.1 2.3-0.2 3.4v0.2c0 1.2-0.1 2.4-0.1 3.6 0 14.7 3 25.4 7.2 27.9l27.2 15.8c-4.2-2.4-7.2-13.2-7.2-27.9 0-1.2 0-2.4 0.1-3.6v-0.2c0-1.2 0.1-2.3 0.2-3.4v-0.3l0.3-3.3v-0.3c0.1-1.1 0.2-2.1 0.4-3.1v-0.3c0.2-1.2 0.3-2.4 0.5-3.6v-0.2c0.2-1.2 0.4-2.4 0.7-3.5 0-0.1 0-0.2 0.1-0.3 0.1-0.6 0.3-1.2 0.4-1.8 0-0.1 0.1-0.2 0.1-0.3 0.2-0.6 0.3-1.3 0.5-1.9 0-0.2 0.1-0.4 0.1-0.5 0.1-0.3 0.2-0.6 0.2-0.9 0.1-0.2 0.1-0.4 0.2-0.6 0.1-0.3 0.2-0.5 0.3-0.8 0.1-0.2 0.1-0.3 0.2-0.5 0.2-0.6 0.4-1.2 0.7-1.8 0-0.1 0.1-0.2 0.1-0.4 0.2-0.4 0.3-0.8 0.5-1.1 0-0.1 0.1-0.2 0.1-0.3 0.2-0.4 0.3-0.8 0.5-1.1 0.2-0.3 0.3-0.7 0.5-1 0.2-0.3 0.3-0.6 0.5-0.9v-0.1c0.1-0.3 0.3-0.5 0.5-0.7 0-0.1 0.1-0.1 0.1-0.2 0.1-0.2 0.2-0.3 0.3-0.5 0.1-0.1 0.1-0.2 0.2-0.2 0.1-0.1 0.2-0.3 0.3-0.4 0.1-0.1 0.1-0.2 0.2-0.2l0.3-0.3c0.1-0.1 0.2-0.2 0.3-0.4l0.2-0.2 0.4-0.4 0.2-0.2c0.2-0.2 0.4-0.3 0.6-0.4 0.2-0.1 0.3-0.2 0.5-0.2 0.1 0 0.1 0 0.2-0.1 0-0.2 0.1-0.2 0.2-0.2z" fill="#ADADAD" p-id="4269"></path><path d="M354.3 289.4c6.1-3.5 1.5 16.4 1.5 35.2 0.1 18.8 4.7 29.5-1.3 33-6.1 3.5-11-8.9-11.1-27.8-0.1-18.7 4.8-36.9 10.9-40.4z" fill="#BDBDBD" p-id="4270"></path><path d="M333.3 316v3.2c-14.5 8.4-16.4 13.3-18.3 18.5-0.4 1.1-0.8 2.1-1.3 3.2-2.2 4.9-10.7 46.4-15.9 73.2l-2.6 0.8c1.3-6.9 13.2-67.4 16.3-74.4 0.4-1 0.8-2 1.2-2.9 2.2-6.1 4.5-12.3 20.6-21.6z" fill="#BDBDBD" p-id="4271"></path><path d="M333.3 316l-2.7-1.6s-15.2 7.8-19.5 18.3-5.3 16.5-5.3 16.5l-13.3 64 2.7 1.6s13.1-63 13.6-65 3.6-12.6 5.5-16.5c2-3.8 6.3-10 19-17.3z" fill="#BDBDBD" p-id="4272"></path><path d="M450.9 511.3l-0.3-0.2c-0.3-0.2-0.5-0.3-0.8-0.5l-50-28.7c-0.5-0.3-0.9-0.6-1.4-0.8l-0.2-0.1c-1.6-0.7-3.3-1.2-5.2-1.2-6.7 0-12.1 5.4-12.1 12.1 0 5 3.1 9.4 7.5 11.2l49.2 29.5c1.9 1.2 4.1 1.8 6.5 1.8 7 0 12.6-5.6 12.6-12.6-0.1-4.3-2.4-8.2-5.8-10.5z" fill="#030415" p-id="4273"></path><path d="M494.6 325s-0.7 45.6-9.9 62.9c-9.2 17.3-42 66.4-55.3 73-13.3 6.6-39.8 15.8-39 36.1 0.8 20.3 18 28.4 29.7 26.9l4.1-20.3h16.4s10.7-10.2 13.9-19.3c0 0 64.1-52.1 80.4-86.2 16.3-34.1 25.2-80.7 25.2-80.7l-65.5 7.6z" fill="#EFBBA7" p-id="4274"></path><path d="M541.4 232.5c22.9 0 34.1 41.2 21.3 92.5h-72s1.9-92.5 50.7-92.5z" fill="#A8D5AF" p-id="4275"></path><path d="M404.8 359.3v3.2c-14.5 8.4-16.4 13.3-18.3 18.5-0.4 1.1-0.8 2.1-1.3 3.2-2.2 4.9-10.7 46.4-15.9 73.2l-2.6 0.8c1.3-6.9 13.2-67.4 16.3-74.4 0.4-1 0.8-2 1.2-2.9 2.1-6.1 4.5-12.3 20.6-21.6z" fill="#BDBDBD" p-id="4276"></path><path d="M404.8 359.3l-2.7-1.6s-15.2 7.8-19.5 18.3c-4.2 10.5-5.3 16.5-5.3 16.5l-13.3 64 2.7 1.6s13.1-63 13.6-65 3.6-12.6 5.5-16.5c1.9-3.8 6.3-10 19-17.3z" fill="#BDBDBD" p-id="4277"></path></svg>